<svg width="40" height="33" viewBox="0 0 40 33" fill="none" xmlns="http://www.w3.org/2000/svg">
<path fill-rule="evenodd" clip-rule="evenodd" d="M14.9994 24.7818L4.69752 31.8099C2.70353 33.1702 0 31.7416 0 29.3286V3.38375C0 0.969305 2.70307 -0.460116 4.69745 0.900498L23.7156 13.8729C25.4639 15.0656 25.4639 17.6458 23.7156 18.8354L17.002 23.4155V29.326C17.002 30.1311 17.903 30.6069 18.5679 30.1533L37.5595 17.1832C38.1433 16.7839 38.1433 15.9262 37.56 15.5283L18.5683 2.55821C17.903 2.10427 17.002 2.58004 17.002 3.38516V4.32635C17.002 4.87935 16.5537 5.32762 16.0007 5.32762C15.4477 5.32762 14.9994 4.87935 14.9994 4.32635V3.38516C14.9994 0.970617 17.7026 -0.456661 19.6973 0.904223L38.6889 13.8743C40.437 15.0668 40.437 17.6414 38.6893 18.8365L19.6969 31.8073C17.7026 33.1679 14.9994 31.7406 14.9994 29.326V24.7818ZM14.9994 22.3576L3.56896 30.1556C2.90429 30.609 2.00254 30.1325 2.00254 29.3286V3.38375C2.00254 2.57803 2.90414 2.10122 3.56895 2.5548L22.5871 15.5272C23.1697 15.9246 23.1697 16.7847 22.588 17.1804L17.002 20.9915V17.3148C17.002 16.7618 16.5537 16.3135 16.0007 16.3135C15.4477 16.3135 14.9994 16.7618 14.9994 17.3148V22.3576Z" fill="white"/>
</svg>
