<svg width="18" height="20" viewBox="0 0 18 20" fill="none" xmlns="http://www.w3.org/2000/svg">
<path d="M3.78462 12.9782C2.16532 11.9662 1.35578 11.4603 1.0781 10.8123C0.835619 10.2466 0.835619 9.60613 1.0781 9.04031C1.35578 8.3925 2.16532 7.88651 3.78462 6.87442L11.3899 2.12111C13.187 0.997903 14.0856 0.436243 14.8272 0.495963C15.4735 0.547923 16.066 0.876214 16.4527 1.39682C16.8962 1.99402 16.8962 3.05369 16.8962 5.17301L9.42289 9.89298L16.8962 14.6797C16.8962 16.799 16.8962 17.8586 16.4527 18.4558C16.066 18.9764 15.4735 19.3048 14.8272 19.3568C14.0856 19.4164 13.187 18.8548 11.3899 17.7316L3.78462 12.9782Z" stroke="white" stroke-linejoin="round"/>
</svg>
