<svg width="40" height="40" viewBox="0 0 40 40" fill="none" xmlns="http://www.w3.org/2000/svg">
<path d="M20.8066 29.7933C20.444 30.1181 19.9316 30.303 19.3942 30.303C18.8567 30.303 18.3443 30.1181 17.9817 29.7933L7.77435 20.6502C7.06111 20.0113 7.11531 19.0199 7.89541 18.4357C8.67553 17.8516 9.88609 17.8959 10.5993 18.5348L17.4803 24.6984V1.5674C17.4803 0.701756 18.3372 0 19.3942 0C20.4511 0 21.308 0.701756 21.308 1.5674V24.6984L28.1891 18.5348C28.9023 17.8959 30.1129 17.8516 30.893 18.4357C31.6731 19.0199 31.7272 20.0113 31.0139 20.6502L20.8066 29.7933Z" fill="white"/>
<path d="M3.0303 25.7576C3.0303 24.9208 2.35196 24.2424 1.51515 24.2424C0.678365 24.2424 1.05849e-06 24.9208 1.05849e-06 25.7576V25.8685C-3.93456e-05 28.6313 -7.98943e-05 30.8582 0.235395 32.6097C0.47988 34.4281 1.00289 35.959 2.21889 37.175C3.43489 38.3911 4.96594 38.9141 6.78435 39.1586C8.5358 39.3939 10.7627 39.3939 13.5255 39.3939H25.8685C28.6313 39.3939 30.8582 39.3939 32.6097 39.1586C34.4281 38.9141 35.959 38.3911 37.1752 37.175C38.3911 35.959 38.9141 34.4281 39.1586 32.6097C39.3939 30.8582 39.3939 28.6313 39.3939 25.8685V25.7576C39.3939 24.9208 38.7156 24.2424 37.8788 24.2424C37.042 24.2424 36.3636 24.9208 36.3636 25.7576C36.3636 28.6574 36.3604 30.6798 36.1554 32.2059C35.956 33.6883 35.5915 34.4731 35.0323 35.0323C34.4731 35.5915 33.6883 35.956 32.2059 36.1554C30.6798 36.3604 28.6574 36.3636 25.7576 36.3636H13.6364C10.7365 36.3636 8.71408 36.3604 7.18812 36.1554C5.70576 35.956 4.92075 35.5915 4.36164 35.0323C3.80253 34.4731 3.43798 33.6883 3.23869 32.2059C3.03352 30.6798 3.0303 28.6574 3.0303 25.7576Z" fill="white"/>
</svg>
