<svg width="29" height="25" viewBox="0 0 29 25" fill="none" xmlns="http://www.w3.org/2000/svg">
<g clip-path="url(#clip0_170_513)">
<mask id="mask0_170_513" style="mask-type:luminance" maskUnits="userSpaceOnUse" x="0" y="0" width="29" height="25">
<path d="M28.3333 0H0V25H28.3333V0Z" fill="white"/>
</mask>
<g mask="url(#mask0_170_513)">
<path d="M2.36115 13.75L2.0777 12.5595C1.15135 8.66883 4.44686 5 8.86802 5H23.8889M23.8889 5L19.7223 8.75M23.8889 5L19.7223 1.25M25.9723 11.25L26.2557 12.4405C27.1821 16.3312 23.8865 20 19.4654 20H4.44448M4.44448 20L8.6111 16.25M4.44448 20L8.6111 23.75" stroke="#9EE07E" stroke-width="3" stroke-linecap="round" stroke-linejoin="round"/>
<path d="M4.97807 0.771709L4.97806 0.771715C4.51448 1.12717 4.42682 1.79112 4.78227 2.25471L21.4896 24.0445C21.845 24.5081 22.509 24.5958 22.9726 24.2403C23.4361 23.8849 23.5238 23.2209 23.1684 22.7573L6.46106 0.967499C6.10561 0.503917 5.44165 0.416258 4.97807 0.771709Z" fill="#9EE07E"/>
<path d="M4.97806 0.771715L4.97807 0.771709C5.44165 0.416258 6.10561 0.503917 6.46106 0.967499L23.1684 22.7573C23.5238 23.2209 23.4361 23.8849 22.9726 24.2403L22.9726 24.2403C22.509 24.5958 21.845 24.5081 21.4896 24.0445L4.78227 2.25471C4.42682 1.79112 4.51448 1.12717 4.97806 0.771715Z" stroke="white" stroke-width="0.5"/>
</g>
</g>
<defs>
<clipPath id="clip0_170_513">
<rect width="28.3333" height="25" fill="white"/>
</clipPath>
</defs>
</svg>
