<svg width="29" height="25" viewBox="0 0 29 25" fill="none" xmlns="http://www.w3.org/2000/svg">
<g clip-path="url(#clip0_170_522)">
<path d="M2.36115 13.75L2.0777 12.5595C1.15135 8.66883 4.44686 5 8.86802 5H23.8889M23.8889 5L19.7223 8.75M23.8889 5L19.7223 1.25M25.9723 11.25L26.2557 12.4405C27.1821 16.3312 23.8865 20 19.4654 20H4.44448M4.44448 20L8.6111 16.25M4.44448 20L8.6111 23.75" stroke="#9EE07E" stroke-width="3" stroke-linecap="round" stroke-linejoin="round"/>
<path d="M14.5833 17.5C17.1146 17.5 19.1667 15.448 19.1667 12.9167C19.1667 10.3854 17.1146 8.33333 14.5833 8.33333C12.052 8.33333 10 10.3854 10 12.9167C10 15.448 12.052 17.5 14.5833 17.5Z" fill="#7ACB65"/>
<path d="M13.125 15.8333C12.9492 15.8333 12.7995 15.7747 12.6758 15.6576C12.5586 15.5338 12.5 15.3841 12.5 15.2083C12.5 15.0391 12.5586 14.8926 12.6758 14.7689C12.7995 14.6452 12.9492 14.5833 13.125 14.5833C13.2942 14.5833 13.4407 14.5247 13.5644 14.4076C13.6882 14.2838 13.75 14.1341 13.75 13.9583V11.4583C13.75 11.2891 13.6882 11.1426 13.5644 11.0189C13.4407 10.8952 13.2942 10.8333 13.125 10.8333C12.9492 10.8333 12.7995 10.7747 12.6758 10.6576C12.5586 10.5338 12.5 10.3841 12.5 10.2083C12.5 10.0391 12.5586 9.89258 12.6758 9.76892C12.7995 9.64517 12.9492 9.58333 13.125 9.58333H15C15.3451 9.58333 15.638 9.707 15.8789 9.95442C16.1263 10.2018 16.25 10.4948 16.25 10.8333V13.9583C16.25 14.1341 16.3086 14.2838 16.4257 14.4076C16.5495 14.5247 16.6992 14.5833 16.875 14.5833C17.0442 14.5833 17.1907 14.6452 17.3144 14.7689C17.4382 14.8926 17.5 15.0391 17.5 15.2083C17.5 15.3841 17.4382 15.5338 17.3144 15.6576C17.1907 15.7747 17.0442 15.8333 16.875 15.8333H13.125Z" fill="white"/>
</g>
<defs>
<clipPath id="clip0_170_522">
<rect width="28.3333" height="25" fill="white"/>
</clipPath>
</defs>
</svg>
