<svg width="30" height="30" viewBox="0 0 30 30" fill="none" xmlns="http://www.w3.org/2000/svg">
<path d="M15 23.0233C15.578 23.0233 16.0465 22.5547 16.0465 21.9767V13.6046C16.0465 13.0267 15.578 12.5581 15 12.5581C14.422 12.5581 13.9535 13.0267 13.9535 13.6046V21.9767C13.9535 22.5547 14.422 23.0233 15 23.0233Z" fill="white"/>
<path d="M15 8.02323C15.7706 8.02323 16.3953 8.64796 16.3953 9.41858C16.3953 10.1892 15.7706 10.8139 15 10.8139C14.2293 10.8139 13.6046 10.1892 13.6046 9.41858C13.6046 8.64796 14.2293 8.02323 15 8.02323Z" fill="white"/>
<path fill-rule="evenodd" clip-rule="evenodd" d="M0 15C0 6.71573 6.71573 0 15 0C23.2843 0 30 6.71573 30 15C30 23.2843 23.2843 30 15 30C6.71573 30 0 23.2843 0 15ZM15 2.09302C7.87168 2.09302 2.09302 7.87168 2.09302 15C2.09302 22.1283 7.87168 27.907 15 27.907C22.1283 27.907 27.907 22.1283 27.907 15C27.907 7.87168 22.1283 2.09302 15 2.09302Z" fill="white"/>
</svg>
