<svg width="32" height="28" viewBox="0 0 32 28" fill="none" xmlns="http://www.w3.org/2000/svg">
<path d="M25.0466 8.64901C24.4462 9.24934 24.4462 10.2226 25.0466 10.823C25.6469 11.4233 26.6201 11.4233 27.2205 10.823L25.0466 8.64901ZM31.3199 6.72365C31.9202 6.12332 31.9202 5.14996 31.3199 4.54963C30.7195 3.9493 29.7463 3.9493 29.146 4.54963L31.3199 6.72365ZM29.146 6.72365C29.7463 7.32399 30.7195 7.32399 31.3199 6.72365C31.9202 6.12332 31.9202 5.14996 31.3199 4.54963L29.146 6.72365ZM27.2205 0.45025C26.6201 -0.150083 25.6469 -0.150083 25.0466 0.45025C24.4462 1.05058 24.4462 2.02394 25.0466 2.62427L27.2205 0.45025ZM30.2329 7.17391C31.0819 7.17391 31.7702 6.48564 31.7702 5.63664C31.7702 4.78764 31.0819 4.09937 30.2329 4.09937V7.17391ZM13.3054 12.9905C12.8388 13.6997 13.0354 14.653 13.7448 15.1197C14.454 15.5862 15.4073 15.3897 15.874 14.6803L13.3054 12.9905ZM15.874 14.6803C16.3405 13.9711 16.144 13.0178 15.4346 12.5511C14.7254 12.0846 13.7721 12.2811 13.3054 12.9905L15.874 14.6803ZM1.53727 20.4969C0.688265 20.4969 0 21.1852 0 22.0342C0 22.8831 0.688265 23.5714 1.53727 23.5714V20.4969ZM15.874 12.9905C15.4073 12.2811 14.454 12.0846 13.7448 12.5511C13.0354 13.0178 12.8388 13.9711 13.3054 14.6803L15.874 12.9905ZM30.2329 23.5714C31.0819 23.5714 31.7702 22.8831 31.7702 22.0342C31.7702 21.1852 31.0819 20.4969 30.2329 20.4969V23.5714ZM13.3054 14.6803C13.7721 15.3897 14.7254 15.5862 15.4346 15.1197C16.144 14.653 16.3405 13.6997 15.874 12.9905L13.3054 14.6803ZM1.53727 4.09937C0.688265 4.09937 0 4.78764 0 5.63664C0 6.48564 0.688265 7.17391 1.53727 7.17391V4.09937ZM27.2205 16.8478C26.6201 16.2475 25.6469 16.2475 25.0466 16.8478C24.4462 17.4482 24.4462 18.4214 25.0466 19.0217L27.2205 16.8478ZM29.146 23.1211C29.7463 23.7215 30.7195 23.7215 31.3199 23.1211C31.9202 22.5208 31.9202 21.5476 31.3199 20.9472L29.146 23.1211ZM31.3199 23.1211C31.9202 22.5208 31.9202 21.5476 31.3199 20.9472C30.7195 20.3469 29.7463 20.3469 29.146 20.9472L31.3199 23.1211ZM25.0466 25.0466C24.4462 25.6469 24.4462 26.6201 25.0466 27.2205C25.6469 27.8208 26.6201 27.8208 27.2205 27.2205L25.0466 25.0466ZM27.2205 10.823L31.3199 6.72365L29.146 4.54963L25.0466 8.64901L27.2205 10.823ZM31.3199 4.54963L27.2205 0.45025L25.0466 2.62427L29.146 6.72365L31.3199 4.54963ZM30.2329 4.09937H25.5186L25.5172 7.17391H30.2329V4.09937ZM25.5186 4.09937C21.5486 4.09552 17.8446 6.09083 15.6625 9.40766L18.2312 11.0974C19.8439 8.64585 22.5827 7.17106 25.5172 7.17391L25.5186 4.09937ZM15.6625 9.40766L13.3054 12.9905L15.874 14.6803L18.2312 11.0974L15.6625 9.40766ZM13.3054 12.9905L10.9483 16.5734L13.5169 18.2631L15.874 14.6803L13.3054 12.9905ZM10.9483 16.5734C9.33719 19.0223 6.60236 20.4969 3.67095 20.4969L3.67099 23.5714C7.63702 23.5712 11.3371 21.5765 13.5169 18.2631L10.9483 16.5734ZM3.67095 20.4969H1.53727V23.5714H3.67099L3.67095 20.4969ZM13.3054 14.6803L15.6625 18.2631L18.2312 16.5734L15.874 12.9905L13.3054 14.6803ZM15.6625 18.2631C17.8446 21.5799 21.55 23.5753 25.5201 23.5714L25.5186 20.4969C22.5841 20.4998 19.8439 19.025 18.2312 16.5734L15.6625 18.2631ZM25.5201 23.5714H30.2329V20.4969H25.5186L25.5201 23.5714ZM15.874 12.9905L13.5169 9.40764L10.9483 11.0974L13.3054 14.6803L15.874 12.9905ZM13.5169 9.40764C11.3371 6.09432 7.63706 4.09948 3.67103 4.09937L3.67095 7.17391C6.60236 7.17399 9.33717 8.64843 10.9483 11.0974L13.5169 9.40764ZM3.67103 4.09937H1.53727V7.17391H3.67095L3.67103 4.09937ZM25.0466 19.0217L29.146 23.1211L31.3199 20.9472L27.2205 16.8478L25.0466 19.0217ZM29.146 20.9472L25.0466 25.0466L27.2205 27.2205L31.3199 23.1211L29.146 20.9472Z" fill="#9EE07E"/>
</svg>
