<svg width="30" height="25" viewBox="0 0 30 25" fill="none" xmlns="http://www.w3.org/2000/svg">
<g clip-path="url(#clip0_170_535)">
<path d="M22.863 7.72233C22.327 8.25834 22.327 9.12732 22.863 9.66339C23.399 10.1994 24.2679 10.1994 24.804 9.66339L22.863 7.72233ZM28.4642 6.00326C29.0002 5.46725 29.0002 4.59818 28.4642 4.06217C27.9281 3.52616 27.0592 3.52616 26.5232 4.06217L28.4642 6.00326ZM26.5232 6.00326C27.0592 6.53928 27.9281 6.53928 28.4642 6.00326C29.0002 5.46725 29.0002 4.59818 28.4642 4.06217L26.5232 6.00326ZM24.804 0.402009C24.2679 -0.134003 23.399 -0.134003 22.863 0.402009C22.327 0.938018 22.327 1.80709 22.863 2.3431L24.804 0.402009ZM27.4937 6.40528C28.2517 6.40528 28.8663 5.79075 28.8663 5.03271C28.8663 4.27468 28.2517 3.66015 27.4937 3.66015V6.40528ZM12.3798 11.5987C11.9632 12.2319 12.1387 13.083 12.7721 13.4997C13.4054 13.9163 14.2565 13.7408 14.6732 13.1074L12.3798 11.5987ZM14.6732 13.1074C15.0897 12.4742 14.9143 11.623 14.2809 11.2063C13.6477 10.7898 12.7965 10.9653 12.3798 11.5987L14.6732 13.1074ZM1.87256 18.3008C1.11452 18.3008 0.5 18.9154 0.5 19.6734C0.5 20.4313 1.11452 21.0459 1.87256 21.0459V18.3008ZM14.6732 11.5987C14.2565 10.9653 13.4054 10.7898 12.7721 11.2063C12.1387 11.623 11.9632 12.4742 12.3798 13.1074L14.6732 11.5987ZM27.4937 21.0459C28.2517 21.0459 28.8663 20.4313 28.8663 19.6734C28.8663 18.9154 28.2517 18.3008 27.4937 18.3008V21.0459ZM12.3798 13.1074C12.7965 13.7408 13.6477 13.9163 14.2809 13.4997C14.9143 13.083 15.0897 12.2319 14.6732 11.5987L12.3798 13.1074ZM1.87256 3.66015C1.11452 3.66015 0.5 4.27468 0.5 5.03271C0.5 5.79075 1.11452 6.40528 1.87256 6.40528V3.66015ZM24.804 15.0427C24.2679 14.5067 23.399 14.5067 22.863 15.0427C22.327 15.5788 22.327 16.4477 22.863 16.9837L24.804 15.0427ZM26.5232 20.6438C27.0592 21.1799 27.9281 21.1799 28.4642 20.6438C29.0002 20.1079 29.0002 19.2389 28.4642 18.7029L26.5232 20.6438ZM28.4642 20.6438C29.0002 20.1079 29.0002 19.2389 28.4642 18.7029C27.9281 18.1669 27.0592 18.1669 26.5232 18.7029L28.4642 20.6438ZM22.863 22.363C22.327 22.899 22.327 23.7679 22.863 24.304C23.399 24.84 24.2679 24.84 24.804 24.304L22.863 22.363ZM24.804 9.66339L28.4642 6.00326L26.5232 4.06217L22.863 7.72233L24.804 9.66339ZM28.4642 4.06217L24.804 0.402009L22.863 2.3431L26.5232 6.00326L28.4642 4.06217ZM27.4937 3.66015H23.2845L23.2832 6.40528H27.4937V3.66015ZM23.2845 3.66015C19.7398 3.65671 16.4327 5.43824 14.4844 8.3997L16.7779 9.90839C18.2178 7.71951 20.6631 6.40273 23.2832 6.40528L23.2845 3.66015ZM14.4844 8.3997L12.3798 11.5987L14.6732 13.1074L16.7779 9.90839L14.4844 8.3997ZM12.3798 11.5987L10.2753 14.7977L12.5687 16.3063L14.6732 13.1074L12.3798 11.5987ZM10.2753 14.7977C8.83678 16.9842 6.39496 18.3008 3.77763 18.3008L3.77767 21.0459C7.31877 21.0457 10.6224 19.2647 12.5687 16.3063L10.2753 14.7977ZM3.77763 18.3008H1.87256V21.0459H3.77767L3.77763 18.3008ZM12.3798 13.1074L14.4844 16.3063L16.7779 14.7977L14.6732 11.5987L12.3798 13.1074ZM14.4844 16.3063C16.4327 19.2678 19.7411 21.0494 23.2858 21.0459L23.2845 18.3008C20.6644 18.3034 18.2178 16.9866 16.7779 14.7977L14.4844 16.3063ZM23.2858 21.0459H27.4937V18.3008H23.2845L23.2858 21.0459ZM14.6732 11.5987L12.5687 8.39968L10.2753 9.90839L12.3798 13.1074L14.6732 11.5987ZM12.5687 8.39968C10.6224 5.44136 7.3188 3.66025 3.77771 3.66015L3.77763 6.40528C6.39496 6.40535 8.83676 7.72181 10.2753 9.90839L12.5687 8.39968ZM3.77771 3.66015H1.87256V6.40528H3.77763L3.77771 3.66015ZM22.863 16.9837L26.5232 20.6438L28.4642 18.7029L24.804 15.0427L22.863 16.9837ZM26.5232 18.7029L22.863 22.363L24.804 24.304L28.4642 20.6438L26.5232 18.7029Z" fill="#9EE07E"/>
<path d="M5.48209 0.57385C5.23909 0.256924 4.72487 0.24324 4.33355 0.543285C3.94223 0.843329 3.82199 1.34348 4.06499 1.66041L21.6565 24.6034C21.8995 24.9203 22.4137 24.934 22.805 24.634C23.1963 24.3339 23.3166 23.8338 23.0736 23.5168L5.48209 0.57385Z" fill="#9EE07E" stroke="white" stroke-width="0.5"/>
</g>
<defs>
<clipPath id="clip0_170_535">
<rect width="28.5714" height="25" fill="white" transform="translate(0.5)"/>
</clipPath>
</defs>
</svg>
