<svg width="29" height="30" viewBox="0 0 29 30" fill="none" xmlns="http://www.w3.org/2000/svg">
<mask id="path-1-inside-1_145_812" fill="white">
<path d="M22.3311 9.7113C21.7958 10.2465 21.7958 11.1143 22.3311 11.6496C22.8664 12.1848 23.734 12.1848 24.2693 11.6496L22.3311 9.7113ZM27.9242 7.99469C28.4595 7.45944 28.4595 6.59162 27.9242 6.05637C27.389 5.52112 26.5213 5.52112 25.986 6.05637L27.9242 7.99469ZM25.986 7.99469C26.5213 8.52994 27.389 8.52994 27.9242 7.99469C28.4595 7.45944 28.4595 6.59162 27.9242 6.05637L25.986 7.99469ZM24.2693 2.40144C23.734 1.86619 22.8664 1.86619 22.3311 2.40144C21.7958 2.93668 21.7958 3.80451 22.3311 4.33976L24.2693 2.40144ZM26.9551 8.39613C27.7121 8.39613 28.3257 7.78248 28.3257 7.02553C28.3257 6.26857 27.7121 5.65493 26.9551 5.65493V8.39613ZM11.8628 13.5821C11.4469 14.2144 11.6221 15.0644 12.2546 15.4805C12.8869 15.8964 13.7369 15.7212 14.153 15.0887L11.8628 13.5821ZM14.153 15.0887C14.5689 14.4564 14.3937 13.6064 13.7612 13.1903C13.1289 12.7744 12.2789 12.9496 11.8628 13.5821L14.153 15.0887ZM1.3706 20.2747C0.613645 20.2747 0 20.8883 0 21.6453C0 22.4022 0.613645 23.0159 1.3706 23.0159V20.2747ZM14.153 13.5821C13.7369 12.9496 12.8869 12.7744 12.2546 13.1903C11.6221 13.6064 11.4469 14.4564 11.8628 15.0887L14.153 13.5821ZM26.9551 23.0159C27.7121 23.0159 28.3257 22.4022 28.3257 21.6453C28.3257 20.8883 27.7121 20.2747 26.9551 20.2747V23.0159ZM11.8628 15.0887C12.2789 15.7212 13.1289 15.8964 13.7612 15.4805C14.3937 15.0644 14.5689 14.2144 14.153 13.5821L11.8628 15.0887ZM1.3706 5.65493C0.613645 5.65493 0 6.26857 0 7.02553C0 7.78248 0.613645 8.39613 1.3706 8.39613V5.65493ZM24.2693 17.0212C23.734 16.486 22.8664 16.486 22.3311 17.0212C21.7958 17.5565 21.7958 18.4242 22.3311 18.9594L24.2693 17.0212ZM25.986 22.6144C26.5213 23.1496 27.389 23.1496 27.9242 22.6144C28.4595 22.0791 28.4595 21.2114 27.9242 20.6762L25.986 22.6144ZM27.9242 22.6144C28.4595 22.0791 28.4595 21.2114 27.9242 20.6762C27.389 20.1409 26.5213 20.1409 25.986 20.6762L27.9242 22.6144ZM22.3311 24.3311C21.7958 24.8664 21.7958 25.734 22.3311 26.2693C22.8664 26.8046 23.734 26.8046 24.2693 26.2693L22.3311 24.3311ZM24.2693 11.6496L27.9242 7.99469L25.986 6.05637L22.3311 9.7113L24.2693 11.6496ZM27.9242 6.05637L24.2693 2.40144L22.3311 4.33976L25.986 7.99469L27.9242 6.05637ZM26.9551 5.65493H22.752L22.7507 8.39613H26.9551V5.65493ZM22.752 5.65493C19.2123 5.65149 15.9099 7.43048 13.9644 10.3877L16.2546 11.8943C17.6924 9.70849 20.1343 8.39359 22.7507 8.39613L22.752 5.65493ZM13.9644 10.3877L11.8628 13.5821L14.153 15.0887L16.2546 11.8943L13.9644 10.3877ZM11.8628 13.5821L9.7613 16.7765L12.0514 18.2831L14.153 15.0887L11.8628 13.5821ZM9.7613 16.7765C8.32488 18.96 5.88654 20.2747 3.27296 20.2747L3.27299 23.0159C6.80903 23.0157 10.108 21.2372 12.0514 18.2831L9.7613 16.7765ZM3.27296 20.2747H1.3706V23.0159H3.27299L3.27296 20.2747ZM11.8628 15.0887L13.9644 18.2831L16.2546 16.7765L14.153 13.5821L11.8628 15.0887ZM13.9644 18.2831C15.9099 21.2403 19.2136 23.0193 22.7532 23.0159L22.752 20.2747C20.1356 20.2772 17.6924 18.9624 16.2546 16.7765L13.9644 18.2831ZM22.7532 23.0159H26.9551V20.2747H22.752L22.7532 23.0159ZM14.153 13.5821L12.0514 10.3877L9.76128 11.8943L11.8628 15.0887L14.153 13.5821ZM12.0514 10.3877C10.108 7.43358 6.80907 5.65502 3.27303 5.65493L3.27296 8.39613C5.88654 8.3962 8.32486 9.71079 9.76128 11.8943L12.0514 10.3877ZM3.27303 5.65493H1.3706V8.39613H3.27296L3.27303 5.65493ZM22.3311 18.9594L25.986 22.6144L27.9242 20.6762L24.2693 17.0212L22.3311 18.9594ZM25.986 20.6762L22.3311 24.3311L24.2693 26.2693L27.9242 22.6144L25.986 20.6762Z"/>
</mask>
<path d="M22.3311 9.7113C21.7958 10.2465 21.7958 11.1143 22.3311 11.6496C22.8664 12.1848 23.734 12.1848 24.2693 11.6496L22.3311 9.7113ZM27.9242 7.99469C28.4595 7.45944 28.4595 6.59162 27.9242 6.05637C27.389 5.52112 26.5213 5.52112 25.986 6.05637L27.9242 7.99469ZM25.986 7.99469C26.5213 8.52994 27.389 8.52994 27.9242 7.99469C28.4595 7.45944 28.4595 6.59162 27.9242 6.05637L25.986 7.99469ZM24.2693 2.40144C23.734 1.86619 22.8664 1.86619 22.3311 2.40144C21.7958 2.93668 21.7958 3.80451 22.3311 4.33976L24.2693 2.40144ZM26.9551 8.39613C27.7121 8.39613 28.3257 7.78248 28.3257 7.02553C28.3257 6.26857 27.7121 5.65493 26.9551 5.65493V8.39613ZM11.8628 13.5821C11.4469 14.2144 11.6221 15.0644 12.2546 15.4805C12.8869 15.8964 13.7369 15.7212 14.153 15.0887L11.8628 13.5821ZM14.153 15.0887C14.5689 14.4564 14.3937 13.6064 13.7612 13.1903C13.1289 12.7744 12.2789 12.9496 11.8628 13.5821L14.153 15.0887ZM1.3706 20.2747C0.613645 20.2747 0 20.8883 0 21.6453C0 22.4022 0.613645 23.0159 1.3706 23.0159V20.2747ZM14.153 13.5821C13.7369 12.9496 12.8869 12.7744 12.2546 13.1903C11.6221 13.6064 11.4469 14.4564 11.8628 15.0887L14.153 13.5821ZM26.9551 23.0159C27.7121 23.0159 28.3257 22.4022 28.3257 21.6453C28.3257 20.8883 27.7121 20.2747 26.9551 20.2747V23.0159ZM11.8628 15.0887C12.2789 15.7212 13.1289 15.8964 13.7612 15.4805C14.3937 15.0644 14.5689 14.2144 14.153 13.5821L11.8628 15.0887ZM1.3706 5.65493C0.613645 5.65493 0 6.26857 0 7.02553C0 7.78248 0.613645 8.39613 1.3706 8.39613V5.65493ZM24.2693 17.0212C23.734 16.486 22.8664 16.486 22.3311 17.0212C21.7958 17.5565 21.7958 18.4242 22.3311 18.9594L24.2693 17.0212ZM25.986 22.6144C26.5213 23.1496 27.389 23.1496 27.9242 22.6144C28.4595 22.0791 28.4595 21.2114 27.9242 20.6762L25.986 22.6144ZM27.9242 22.6144C28.4595 22.0791 28.4595 21.2114 27.9242 20.6762C27.389 20.1409 26.5213 20.1409 25.986 20.6762L27.9242 22.6144ZM22.3311 24.3311C21.7958 24.8664 21.7958 25.734 22.3311 26.2693C22.8664 26.8046 23.734 26.8046 24.2693 26.2693L22.3311 24.3311ZM24.2693 11.6496L27.9242 7.99469L25.986 6.05637L22.3311 9.7113L24.2693 11.6496ZM27.9242 6.05637L24.2693 2.40144L22.3311 4.33976L25.986 7.99469L27.9242 6.05637ZM26.9551 5.65493H22.752L22.7507 8.39613H26.9551V5.65493ZM22.752 5.65493C19.2123 5.65149 15.9099 7.43048 13.9644 10.3877L16.2546 11.8943C17.6924 9.70849 20.1343 8.39359 22.7507 8.39613L22.752 5.65493ZM13.9644 10.3877L11.8628 13.5821L14.153 15.0887L16.2546 11.8943L13.9644 10.3877ZM11.8628 13.5821L9.7613 16.7765L12.0514 18.2831L14.153 15.0887L11.8628 13.5821ZM9.7613 16.7765C8.32488 18.96 5.88654 20.2747 3.27296 20.2747L3.27299 23.0159C6.80903 23.0157 10.108 21.2372 12.0514 18.2831L9.7613 16.7765ZM3.27296 20.2747H1.3706V23.0159H3.27299L3.27296 20.2747ZM11.8628 15.0887L13.9644 18.2831L16.2546 16.7765L14.153 13.5821L11.8628 15.0887ZM13.9644 18.2831C15.9099 21.2403 19.2136 23.0193 22.7532 23.0159L22.752 20.2747C20.1356 20.2772 17.6924 18.9624 16.2546 16.7765L13.9644 18.2831ZM22.7532 23.0159H26.9551V20.2747H22.752L22.7532 23.0159ZM14.153 13.5821L12.0514 10.3877L9.76128 11.8943L11.8628 15.0887L14.153 13.5821ZM12.0514 10.3877C10.108 7.43358 6.80907 5.65502 3.27303 5.65493L3.27296 8.39613C5.88654 8.3962 8.32486 9.71079 9.76128 11.8943L12.0514 10.3877ZM3.27303 5.65493H1.3706V8.39613H3.27296L3.27303 5.65493ZM22.3311 18.9594L25.986 22.6144L27.9242 20.6762L24.2693 17.0212L22.3311 18.9594ZM25.986 20.6762L22.3311 24.3311L24.2693 26.2693L27.9242 22.6144L25.986 20.6762Z" fill="#9EE07E"/>
<path d="M27.9242 7.99469L16.1388 19.7795L27.9237 31.565L39.7091 19.78L27.9242 7.99469ZM27.9242 6.05637L39.7091 -5.72894L27.9237 -17.514L16.1388 -5.72841L27.9242 6.05637ZM22.7507 8.39613L6.08402 8.38835L39.4173 8.41168L22.7507 8.39613ZM9.7613 16.7765L18.9212 2.85267L0.601193 30.7003L9.7613 16.7765ZM3.27299 23.0159L-13.3937 23.0161L19.9397 23.0159H3.27299ZM22.752 20.2747L39.4186 20.2669L6.08529 20.2747H22.752ZM27.9242 22.6144L16.1391 34.3995L27.9242 46.1846L39.7093 34.3995L27.9242 22.6144ZM27.9242 20.6762L39.7093 8.89105L27.9242 -2.89407L16.1391 8.89105L27.9242 20.6762ZM36.0546 -0.135379L34.1164 -2.07364L10.5458 21.4963L12.484 23.4345L36.0546 -0.135379ZM39.7091 19.78C46.7534 12.736 46.7534 1.31509 39.7091 -5.72894L16.1393 17.8417C10.1656 11.8681 10.1656 2.18291 16.1393 -3.79062L39.7091 19.78ZM14.2006 17.8411L16.1388 19.7795L39.7097 -3.79009L37.7715 -5.72841L14.2006 17.8411ZM16.1388 -5.72841L14.2006 -3.79009L37.7715 19.7795L39.7097 17.8411L16.1388 -5.72841ZM34.1165 16.1245L36.0548 14.1862L12.4839 -9.38334L10.5456 -7.44502L34.1165 16.1245ZM10.2885 5.65493V8.39613H43.6218V5.65493H10.2885ZM6.0853 7.00997L6.08402 8.38057L39.4173 8.41168L39.4186 7.04108L6.0853 7.00997ZM5.94979 25.065L7.09488 25.8183L25.4143 -2.02973L24.2692 -2.78301L5.94979 25.065ZM23.3127 1.16468L21.0225 -0.341881L2.70311 27.5061L4.9933 29.0127L23.3127 1.16468ZM20.0664 3.60608L18.9214 2.8528L0.601193 30.7003L1.74621 31.4535L20.0664 3.60608ZM-13.3937 21.6453V23.0159H19.9397V21.6453H-13.3937ZM18.0373 23.0159V20.2747H-15.2961V23.0159H18.0373ZM21.0225 29.0127L23.3127 27.5061L4.9933 -0.341881L2.70311 1.16468L21.0225 29.0127ZM24.2692 31.4538L25.4143 30.7005L7.09488 2.85253L5.94979 3.60581L24.2692 31.4538ZM39.4186 21.6453V20.2747H6.08529V21.6453H39.4186ZM10.2885 20.2747V23.0159H43.6218V20.2747H10.2885ZM1.74632 -2.78281L0.601281 -2.02953L18.9213 25.8181L20.0663 25.0648L1.74632 -2.78281ZM19.9397 7.02597L19.9397 5.65537L-13.3936 5.65448L-13.3937 7.02508L19.9397 7.02597ZM18.0373 8.39613V5.65493H-15.2961V8.39613H18.0373ZM34.1162 30.7445L36.0544 28.8063L12.4842 5.23611L10.546 7.17432L34.1162 30.7445ZM39.7093 34.3995C46.7534 27.3555 46.7534 15.935 39.7093 8.89105L16.1391 32.4613C10.1657 26.4878 10.1657 16.8027 16.1391 10.8293L39.7093 34.3995ZM16.1391 8.89105L14.2009 10.8293L37.7711 34.3995L39.7093 32.4613L16.1391 8.89105ZM14.2009 32.4613L16.1391 34.3995L39.7093 10.8293L37.7711 8.89105L14.2009 32.4613ZM36.0544 14.4842L34.1162 12.546L10.546 36.1162L12.4842 38.0544L36.0544 14.4842ZM6.08529 5.64715L6.08402 8.38835L39.4173 8.40391L39.4186 5.66271L6.08529 5.64715ZM4.8047 24.3117L7.09488 25.8183L25.4143 -2.02973L23.1241 -3.53629L4.8047 24.3117ZM0.601393 30.7004L2.8915 32.2069L21.2113 4.35923L18.9212 2.85267L0.601393 30.7004ZM-13.3937 20.2749L-13.3937 23.0161L19.9397 23.0156L19.9396 20.2744L-13.3937 20.2749ZM23.1241 32.2071L25.4143 30.7005L7.09488 2.85254L4.8047 4.3591L23.1241 32.2071ZM39.4199 23.0081L39.4186 20.2669L6.08529 20.2824L6.08657 23.0236L39.4199 23.0081ZM2.89148 -3.53616L0.601353 -2.02958L18.9212 25.8181L21.2113 24.3115L2.89148 -3.53616ZM-13.3936 5.65448L-13.3937 8.39568L19.9396 8.39657L19.9397 5.65537L-13.3936 5.65448ZM22.3311 9.7113L45.9009 33.2819L45.9013 33.2815L22.3311 9.7113ZM24.2693 11.6496L0.699251 -11.9208L0.699077 -11.9207L24.2693 11.6496ZM27.9242 7.99469L51.4943 31.5651L4.35441 -15.5759L27.9242 7.99469ZM27.9242 6.05637L4.35441 29.627L51.4945 -17.5139L27.9242 6.05637ZM25.986 6.05637L2.4162 -17.5143L2.4158 -17.5139L25.986 6.05637ZM25.986 7.99469L2.4158 31.5649L2.4162 31.5653L25.986 7.99469ZM24.2693 2.40144L47.8395 -21.1688L47.8391 -21.1692L24.2693 2.40144ZM22.3311 4.33976L45.9013 -19.2305L45.9009 -19.2309L22.3311 4.33976ZM22.7507 8.39613L22.7183 41.7294L22.7345 41.7295H22.7507V8.39613ZM16.2546 11.8943L44.1018 30.2148L44.1028 30.2134L16.2546 11.8943ZM11.8628 13.5821L-15.9844 -4.73844L-15.9847 -4.73798L11.8628 13.5821ZM12.2546 15.4805L-6.06607 43.3276L-6.06415 43.3289L12.2546 15.4805ZM14.153 15.0887L42.0002 33.4092L42.0002 33.4092L14.153 15.0887ZM13.7612 13.1903L32.0819 -14.6568L32.08 -14.6581L13.7612 13.1903ZM9.7613 16.7765L-18.0862 -1.54357L-18.0863 -1.54349L9.7613 16.7765ZM3.27299 23.0159L3.27299 56.3492L3.27471 56.3492L3.27299 23.0159ZM12.2546 13.1903L-6.06415 -14.6581L-6.06607 -14.6568L12.2546 13.1903ZM11.8628 15.0887L-15.9846 33.4089L-15.9843 33.4094L11.8628 15.0887ZM16.2546 16.7765L44.103 -1.54227L44.1018 -1.54401L16.2546 16.7765ZM22.752 20.2747V-13.0587H22.7357L22.7194 -13.0587L22.752 20.2747ZM13.7612 15.4805L32.08 43.3289L32.0819 43.3276L13.7612 15.4805ZM9.76128 11.8943L-18.0864 30.2142L-18.0862 30.2145L9.76128 11.8943ZM3.27303 5.65493L3.27389 -27.6784H3.27303V5.65493ZM22.752 5.65493L22.7196 38.9882L22.7358 38.9883H22.752V5.65493ZM13.9644 10.3877L41.8116 28.7083L41.8117 28.7081L13.9644 10.3877ZM12.0514 18.2831L-15.7958 -0.0374587L-15.796 -0.0372543L12.0514 18.2831ZM13.9644 18.2831L41.8117 -0.037394L41.8116 -0.0374587L13.9644 18.2831ZM22.7532 23.0159V-10.3175H22.7369L22.7205 -10.3175L22.7532 23.0159ZM12.0514 10.3877L-15.796 28.708L-15.7959 28.7082L12.0514 10.3877ZM3.27296 8.39613L3.27389 -24.9372H3.27296V8.39613ZM-1.23873 -13.8593C-14.7922 -0.306287 -14.7917 21.6673 -1.23913 35.2198L45.9013 -11.9207C58.3833 0.561334 58.3839 20.7994 45.9009 33.2819L-1.23873 -13.8593ZM-1.23913 35.2198C12.3136 48.7725 34.2868 48.7725 47.8395 35.2198L0.699077 -11.9207C13.1813 -24.4029 33.4191 -24.4029 45.9013 -11.9207L-1.23913 35.2198ZM51.4941 -17.5143C37.9414 -31.0664 15.9688 -31.0664 2.4162 -17.5143L49.5558 29.627C37.0737 42.1087 16.8365 42.1087 4.35441 29.627L51.4941 -17.5143ZM2.4162 31.5653C15.9688 45.1175 37.9414 45.1175 51.4941 31.5653L4.35441 -15.5759C16.8365 -28.0576 37.0737 -28.0576 49.5558 -15.5759L2.4162 31.5653ZM47.8391 -21.1692C34.2865 -34.7214 12.3139 -34.7214 -1.23873 -21.1692L45.9009 25.9721C33.4188 38.4538 13.1816 38.4538 0.699478 25.9721L47.8391 -21.1692ZM-1.23873 -21.1692C-14.792 -7.61638 -14.792 14.3576 -1.23873 27.9104L45.9009 -19.2309C58.3837 -6.74855 58.3837 13.4897 45.9009 25.9721L-1.23873 -21.1692ZM26.9551 41.7295C46.1213 41.7295 61.6591 26.1923 61.6591 7.02553H-5.0076C-5.0076 -10.6273 9.30286 -24.9372 26.9551 -24.9372V41.7295ZM61.6591 7.02553C61.6591 -12.1412 46.1213 -27.6784 26.9551 -27.6784V38.9883C9.30287 38.9883 -5.0076 24.6784 -5.0076 7.02553H61.6591ZM-15.9856 -4.73666C-26.5166 11.2727 -22.0798 32.7921 -6.06607 43.3276L30.5753 -12.3666C45.3241 -2.66339 49.4103 17.1562 39.7112 31.9009L-15.9856 -4.73666ZM-6.06415 43.3289C9.94518 53.8599 31.4646 49.4231 42.0001 33.4094L-13.6941 -3.23202C-3.99088 -17.9808 15.8287 -22.067 30.5734 -12.3679L-6.06415 43.3289ZM42.0014 33.4075C52.5324 17.3981 48.0956 -4.12134 32.0819 -14.6568L-4.55951 41.0374C-19.3083 31.3342 -23.3945 11.5146 -13.6954 -3.2301L42.0014 33.4075ZM32.08 -14.6581C16.0706 -25.1891 -5.44883 -20.7523 -15.9843 -4.73858L39.71 31.9028C30.0067 46.6516 10.1871 50.7378 -4.55759 41.0387L32.08 -14.6581ZM1.3706 -13.0587C-17.7961 -13.0587 -33.3333 2.47913 -33.3333 21.6453H33.3333C33.3333 39.2975 19.0234 53.608 1.3706 53.608V-13.0587ZM-33.3333 21.6453C-33.3333 40.8114 -17.7961 56.3492 1.3706 56.3492V-10.3175C19.0234 -10.3175 33.3333 3.993 33.3333 21.6453H-33.3333ZM42.0001 -4.73858C31.4646 -20.7523 9.94518 -25.1891 -6.06415 -14.6581L30.5734 41.0387C15.8287 50.7378 -3.99088 46.6516 -13.6941 31.9028L42.0001 -4.73858ZM-6.06607 -14.6568C-22.0798 -4.12134 -26.5166 17.3981 -15.9856 33.4075L39.7112 -3.2301C49.4103 11.5146 45.3241 31.3342 30.5753 41.0374L-6.06607 -14.6568ZM26.9551 56.3492C46.1216 56.3492 61.6591 40.8117 61.6591 21.6453H-5.0076C-5.0076 3.99271 9.30257 -10.3175 26.9551 -10.3175V56.3492ZM61.6591 21.6453C61.6591 2.47884 46.1216 -13.0587 26.9551 -13.0587V53.608C9.30257 53.608 -5.0076 39.2978 -5.0076 21.6453H61.6591ZM-15.9843 33.4094C-5.44883 49.4231 16.0706 53.8599 32.08 43.3289L-4.55759 -12.3679C10.1871 -22.067 30.0067 -17.9808 39.71 -3.23202L-15.9843 33.4094ZM32.0819 43.3276C48.0956 32.7921 52.5324 11.2727 42.0014 -4.73666L-13.6954 31.9009C-23.3945 17.1562 -19.3083 -2.66339 -4.55951 -12.3666L32.0819 43.3276ZM1.3706 -27.6784C-17.7958 -27.6784 -33.3333 -12.1409 -33.3333 7.02553H33.3333C33.3333 24.6781 19.0231 38.9883 1.3706 38.9883V-27.6784ZM-33.3333 7.02553C-33.3333 26.192 -17.7959 41.7295 1.3706 41.7295V-24.9372C19.0231 -24.9372 33.3333 -10.627 33.3333 7.02553H-33.3333ZM47.8395 -6.549C34.2868 -20.1017 12.3136 -20.1017 -1.23913 -6.549L45.9013 40.5914C33.4191 53.0737 13.1813 53.0737 0.699077 40.5914L47.8395 -6.549ZM-1.23913 -6.549C-14.7919 7.00374 -14.7919 28.9769 -1.23913 42.5297L45.9013 -4.61079C58.3835 7.87142 58.3835 28.1092 45.9013 40.5914L-1.23913 -6.549ZM2.4158 46.1846C15.9685 59.7373 37.9417 59.7373 51.4945 46.1846L4.35401 -0.955854C16.8362 -13.4381 37.074 -13.4381 49.5563 -0.955854L2.4158 46.1846ZM51.4945 -2.89407C37.9417 -16.4468 15.9685 -16.4468 2.4158 -2.89407L49.5563 44.2464C37.074 56.7286 16.8362 56.7286 4.35401 44.2464L51.4945 -2.89407ZM-1.23913 0.760868C-14.7919 14.3136 -14.7919 36.2868 -1.23913 49.8395L45.9013 2.69908C58.3835 15.1813 58.3835 35.4191 45.9013 47.9013L-1.23913 0.760868ZM-1.23913 49.8395C12.3136 63.3923 34.2868 63.3923 47.8395 49.8395L0.699077 2.69908C13.1813 -9.78313 33.4191 -9.78313 45.9013 2.69908L-1.23913 49.8395ZM47.8394 35.22L51.4943 31.5651L4.35418 -15.5757L0.699251 -11.9208L47.8394 35.22ZM2.4158 -17.5139L-1.23914 -13.8589L45.9013 33.2815L49.5563 29.6266L2.4158 -17.5139ZM51.4945 -17.5139L47.8395 -21.1688L0.699077 25.9717L4.35401 29.6266L51.4945 -17.5139ZM-1.23913 27.91L2.4158 31.5649L49.5562 -15.5755L45.9013 -19.2305L-1.23913 27.91ZM26.9551 -27.6784H22.752V38.9883H26.9551V-27.6784ZM22.7507 41.7295H26.9551V-24.9372H22.7507V41.7295ZM22.7843 -27.6784C8.01137 -27.6927 -5.76854 -20.2667 -13.8829 -7.9327L41.8117 28.7081C37.5884 35.1277 30.4133 38.9957 22.7196 38.9882L22.7843 -27.6784ZM44.1028 30.2134C39.3688 37.4098 31.3302 41.7378 22.7183 41.7294L22.783 -24.9372C8.93842 -24.9506 -3.98392 -17.9929 -11.5936 -6.42485L44.1028 30.2134ZM-13.8828 -7.93285L-15.9844 -4.73844L39.71 31.9027L41.8116 28.7083L-13.8828 -7.93285ZM42.0002 33.4092L44.1018 30.2148L-11.5927 -6.42628L-13.6942 -3.23186L42.0002 33.4092ZM-15.9847 -4.73798L-18.0862 -1.54357L37.6088 35.0966L39.7104 31.9022L-15.9847 -4.73798ZM39.8986 36.6036L42.0002 33.4092L-13.6942 -3.23187L-15.7958 -0.0374587L39.8986 36.6036ZM-18.0863 -1.54349C-13.3582 -8.73052 -5.3318 -13.0587 3.27296 -13.0587V53.608C17.1049 53.608 30.0079 46.6505 37.6089 35.0965L-18.0863 -1.54349ZM3.27471 56.3492C18.0266 56.3484 31.7901 48.9288 39.8988 36.6034L-15.796 -0.0372543C-11.5742 -6.4544 -4.40854 -10.3171 3.27127 -10.3175L3.27471 56.3492ZM3.27296 -13.0587H1.3706V53.608H3.27296V-13.0587ZM1.3706 56.3492H3.27299V-10.3175H1.3706V56.3492ZM-15.9844 33.4092L-13.8828 36.6036L41.8116 -0.0374587L39.7101 -3.23187L-15.9844 33.4092ZM44.1018 -1.54401L42.0002 -4.73842L-13.6942 31.9027L-11.5927 35.0971L44.1018 -1.54401ZM-13.8829 36.6036C-5.76625 48.9409 8.01685 56.3637 22.7859 56.3492L22.7205 -10.3175C30.4104 -10.325 37.5861 -6.46032 41.8117 -0.037394L-13.8829 36.6036ZM22.7194 -13.0587C31.3251 -13.0671 39.3655 -8.74419 44.103 -1.54227L-11.5938 35.0953C-3.98065 46.6689 8.94603 53.6215 22.7846 53.608L22.7194 -13.0587ZM22.7532 56.3492H26.9551V-10.3175H22.7532V56.3492ZM26.9551 -13.0587H22.752V53.608H26.9551V-13.0587ZM42.0003 -4.73837L39.8987 -7.9328L-15.7959 28.7082L-13.6943 31.9026L42.0003 -4.73837ZM-18.0862 30.2145L-15.9846 33.4089L39.7103 -3.23154L37.6087 -6.42595L-18.0862 30.2145ZM39.8988 -7.93266C31.7905 -20.2575 18.027 -27.678 3.27389 -27.6784L3.27217 38.9883C-4.40891 38.9881 -11.5746 35.1246 -15.796 28.708L39.8988 -7.93266ZM3.27202 41.7295C-5.33134 41.7292 -13.3578 37.4019 -18.0864 30.2142L37.6089 -6.42564C30.0076 -17.9803 17.1044 -24.9368 3.27389 -24.9372L3.27202 41.7295ZM3.27303 -27.6784H1.3706V38.9883H3.27303V-27.6784ZM1.3706 41.7295H3.27296V-24.9372H1.3706V41.7295ZM-1.23913 42.5297L2.4158 46.1846L49.5563 -0.955854L45.9013 -4.61079L-1.23913 42.5297ZM51.4945 -2.89407L47.8395 -6.549L0.699077 40.5914L4.35401 44.2464L51.4945 -2.89407ZM2.4158 -2.89407L-1.23913 0.760868L45.9013 47.9013L49.5563 44.2464L2.4158 -2.89407ZM47.8395 49.8395L51.4945 46.1846L4.35401 -0.955854L0.699077 2.69908L47.8395 49.8395Z" fill="#9EE07E" mask="url(#path-1-inside-1_145_812)"/>
<rect x="1.35051" y="1.3506" width="1.64359" height="34.5" rx="0.821795" transform="rotate(-37.4791 1.35051 1.3506)" fill="#9EE07E" stroke="white" stroke-width="0.5"/>
</svg>
