<svg width="40" height="36" viewBox="0 0 40 36" fill="none" xmlns="http://www.w3.org/2000/svg">
<path d="M5.83335 19.5L5.49321 18.0714C4.3816 13.4026 8.33621 9 13.6416 9H31.6667M31.6667 9L26.6667 13.5M31.6667 9L26.6667 4.5M34.1667 16.5L34.5068 17.9286C35.6185 22.5974 31.6638 27 26.3585 27H8.33335M8.33335 27L13.3333 22.5M8.33335 27L13.3333 31.5" stroke="#9EE07E" stroke-width="3" stroke-linecap="round" stroke-linejoin="round"/>
<circle cx="20.5" cy="18.5" r="5.5" fill="#7ACB65"/>
<path d="M18.75 22C18.5391 22 18.3594 21.9297 18.2109 21.7891C18.0703 21.6406 18 21.4609 18 21.25C18 21.0469 18.0703 20.8711 18.2109 20.7227C18.3594 20.5742 18.5391 20.5 18.75 20.5C18.9531 20.5 19.1289 20.4297 19.2773 20.2891C19.4258 20.1406 19.5 19.9609 19.5 19.75V16.75C19.5 16.5469 19.4258 16.3711 19.2773 16.2227C19.1289 16.0742 18.9531 16 18.75 16C18.5391 16 18.3594 15.9297 18.2109 15.7891C18.0703 15.6406 18 15.4609 18 15.25C18 15.0469 18.0703 14.8711 18.2109 14.7227C18.3594 14.5742 18.5391 14.5 18.75 14.5H21C21.4141 14.5 21.7656 14.6484 22.0547 14.9453C22.3516 15.2422 22.5 15.5938 22.5 16V19.75C22.5 19.9609 22.5703 20.1406 22.7109 20.2891C22.8594 20.4297 23.0391 20.5 23.25 20.5C23.4531 20.5 23.6289 20.5742 23.7773 20.7227C23.9258 20.8711 24 21.0469 24 21.25C24 21.4609 23.9258 21.6406 23.7773 21.7891C23.6289 21.9297 23.4531 22 23.25 22H18.75Z" fill="white"/>
</svg>
