<svg width="34" height="30" viewBox="0 0 34 30" fill="none" xmlns="http://www.w3.org/2000/svg">
<path d="M2.83335 16.5L2.49321 15.0714C1.3816 10.4026 5.33621 6 10.6416 6H28.6667M28.6667 6L23.6667 10.5M28.6667 6L23.6667 1.5M31.1667 13.5L31.5068 14.9286C32.6185 19.5974 28.6638 24 23.3585 24H5.33335M5.33335 24L10.3333 19.5M5.33335 24L10.3333 28.5" stroke="#9EE07E" stroke-width="3" stroke-linecap="round" stroke-linejoin="round"/>
<circle cx="17.5" cy="15.5" r="5.5" fill="#7ACB65"/>
<path d="M15.75 19C15.5391 19 15.3594 18.9297 15.2109 18.7891C15.0703 18.6406 15 18.4609 15 18.25C15 18.0469 15.0703 17.8711 15.2109 17.7227C15.3594 17.5742 15.5391 17.5 15.75 17.5C15.9531 17.5 16.1289 17.4297 16.2773 17.2891C16.4258 17.1406 16.5 16.9609 16.5 16.75V13.75C16.5 13.5469 16.4258 13.3711 16.2773 13.2227C16.1289 13.0742 15.9531 13 15.75 13C15.5391 13 15.3594 12.9297 15.2109 12.7891C15.0703 12.6406 15 12.4609 15 12.25C15 12.0469 15.0703 11.8711 15.2109 11.7227C15.3594 11.5742 15.5391 11.5 15.75 11.5H18C18.4141 11.5 18.7656 11.6484 19.0547 11.9453C19.3516 12.2422 19.5 12.5938 19.5 13V16.75C19.5 16.9609 19.5703 17.1406 19.7109 17.2891C19.8594 17.4297 20.0391 17.5 20.25 17.5C20.4531 17.5 20.6289 17.5742 20.7773 17.7227C20.9258 17.8711 21 18.0469 21 18.25C21 18.4609 20.9258 18.6406 20.7773 18.7891C20.6289 18.9297 20.4531 19 20.25 19H15.75Z" fill="white"/>
</svg>
