<svg width="38" height="30" viewBox="0 0 38 30" fill="none" xmlns="http://www.w3.org/2000/svg">
<path d="M12.7725 28.5444C12.7725 29.346 13.4223 29.9958 14.2239 29.9958C15.0254 29.9958 15.6753 29.346 15.6753 28.5444H12.7725ZM14.2239 24.227L12.7735 24.1714C12.7728 24.19 12.7725 24.2084 12.7725 24.227H14.2239ZM18.8684 19.9115L18.8173 21.3619C18.8513 21.3631 18.8854 21.3631 18.9194 21.3619L18.8684 19.9115ZM23.5128 24.227H24.9642C24.9642 24.2084 24.9638 24.19 24.9633 24.1714L23.5128 24.227ZM22.0614 28.5444C22.0614 29.346 22.7113 29.9958 23.5128 29.9958C24.3144 29.9958 24.9642 29.346 24.9642 28.5444H22.0614ZM14.2239 27.093C13.4223 27.093 12.7725 27.7428 12.7725 28.5444C12.7725 29.346 13.4223 29.9958 14.2239 29.9958V27.093ZM23.5128 29.9958C24.3144 29.9958 24.9642 29.346 24.9642 28.5444C24.9642 27.7428 24.3144 27.093 23.5128 27.093V29.9958ZM14.2239 29.9958C15.0254 29.9958 15.6753 29.346 15.6753 28.5444C15.6753 27.7428 15.0254 27.093 14.2239 27.093V29.9958ZM13.0628 28.5444V27.093C13.0457 27.093 13.0287 27.0932 13.0117 27.0938L13.0628 28.5444ZM6.09603 22.0692H4.64463C4.64463 22.0874 4.64498 22.1058 4.64567 22.1242L6.09603 22.0692ZM7.54743 9.0917C7.54743 8.29012 6.89761 7.6403 6.09603 7.6403C5.29445 7.6403 4.64463 8.29012 4.64463 9.0917H7.54743ZM0.636443 11.0433C-0.0268087 11.4933 -0.199525 12.3959 0.250641 13.0593C0.700827 13.7225 1.60342 13.8951 2.26666 13.445L0.636443 11.0433ZM6.91114 10.2926C7.57439 9.84243 7.7471 8.93983 7.29694 8.2766C6.84675 7.61336 5.94416 7.44063 5.28092 7.89081L6.91114 10.2926ZM5.28092 7.89081C4.61765 8.34094 4.44496 9.2435 4.89508 9.90675C5.34523 10.57 6.24789 10.7427 6.91114 10.2926L5.28092 7.89081ZM16.19 2.24109L15.4026 1.02186C15.3933 1.02786 15.384 1.03395 15.3749 1.04017L16.19 2.24109ZM21.5467 2.24109L22.3618 1.04017C22.3527 1.03395 22.3434 1.02786 22.3341 1.02186L21.5467 2.24109ZM30.8256 10.2926C31.489 10.7428 32.3915 10.57 32.8417 9.90675C33.2918 9.2435 33.119 8.3409 32.4558 7.89078L30.8256 10.2926ZM23.5128 27.093C22.7113 27.093 22.0614 27.7428 22.0614 28.5444C22.0614 29.346 22.7113 29.9958 23.5128 29.9958V27.093ZM24.674 28.5444L24.725 27.0938C24.708 27.0932 24.691 27.093 24.674 27.093V28.5444ZM31.6407 22.0692L33.0911 22.1242C33.0917 22.1058 33.0921 22.0874 33.0921 22.0692H31.6407ZM33.0921 9.0917C33.0921 8.29012 32.4422 7.6403 31.6407 7.6403C30.8391 7.6403 30.1893 8.29012 30.1893 9.0917H33.0921ZM35.4704 13.4433C36.1338 13.8934 37.0364 13.7204 37.4863 13.057C37.9363 12.3936 37.7633 11.491 37.0999 11.0411L35.4704 13.4433ZM32.4558 7.89078C31.7924 7.44078 30.8896 7.61358 30.4395 8.27694C29.9896 8.94031 30.1622 9.84266 30.8256 10.2926L32.4558 7.89078ZM15.6753 28.5444V24.227H12.7725V28.5444H15.6753ZM15.6743 24.2823C15.7382 22.6091 17.1439 21.3029 18.8173 21.3619L18.9194 18.4608C15.6472 18.3457 12.8985 20.8996 12.7735 24.1714L15.6743 24.2823ZM18.9194 21.3619C20.5928 21.3029 21.9985 22.6091 22.0624 24.2823L24.9633 24.1714C24.8383 20.8996 22.0895 18.3457 18.8173 18.4608L18.9194 21.3619ZM22.0614 24.227V28.5444H24.9642V24.227H22.0614ZM14.2239 29.9958H23.5128V27.093H14.2239V29.9958ZM14.2239 27.093H13.0628V29.9958H14.2239V27.093ZM13.0117 27.0938C10.1012 27.1963 7.65673 24.9242 7.54639 22.0143L4.64567 22.1242C4.81663 26.6332 8.60428 30.1537 13.1138 29.9948L13.0117 27.0938ZM7.54743 22.0692V9.0917H4.64463V22.0692H7.54743ZM2.26666 13.445L6.91114 10.2926L5.28092 7.89081L0.636443 11.0433L2.26666 13.445ZM6.91114 10.2926L17.0051 3.44204L15.3749 1.04017L5.28092 7.89081L6.91114 10.2926ZM16.9775 3.46033C18.1285 2.71696 19.6082 2.71696 20.7592 3.46033L22.3341 1.02186C20.2245 -0.34062 17.5122 -0.34062 15.4026 1.02186L16.9775 3.46033ZM20.7316 3.44204L30.8256 10.2926L32.4558 7.89078L22.3618 1.04017L20.7316 3.44204ZM23.5128 29.9958H24.674V27.093H23.5128V29.9958ZM24.6229 29.9948C29.1325 30.1537 32.92 26.6332 33.0911 22.1242L30.1902 22.0143C30.0799 24.9242 27.6354 27.1963 24.725 27.0938L24.6229 29.9948ZM33.0921 22.0692V9.0917H30.1893V22.0692H33.0921ZM37.0999 11.0411L32.4558 7.89078L30.8256 10.2926L35.4704 13.4433L37.0999 11.0411Z" fill="white"/>
</svg>
