<svg width="50" height="50" viewBox="0 0 50 50" fill="none" xmlns="http://www.w3.org/2000/svg">
<path d="M34.7046 19.3467C37.7042 21.2214 39.2038 22.1587 39.7181 23.3589C40.1673 24.4068 40.1673 25.5932 39.7181 26.6414C39.2038 27.8414 37.7042 28.7787 34.7046 30.6534L20.6167 39.4584C17.2876 41.5391 15.6231 42.5795 14.2495 42.4689C13.0521 42.3726 11.9546 41.7645 11.2384 40.8001C10.4167 39.6939 10.4167 37.7309 10.4167 33.8051V16.195C10.4167 12.2693 10.4167 10.3064 11.2384 9.20007C11.9546 8.23573 13.0521 7.62742 14.2495 7.53115C15.6231 7.42073 17.2876 8.46107 20.6167 10.5417L34.7046 19.3467Z" stroke="#34FF00" stroke-width="4" stroke-linejoin="round"/>
</svg>
