<svg width="50" height="50" viewBox="0 0 50 50" fill="none" xmlns="http://www.w3.org/2000/svg">
<path fill-rule="evenodd" clip-rule="evenodd" d="M14.6105 32.4274C12.8808 30.6612 11.7076 28.4262 11.2365 25.9994C10.7614 23.5658 11.0054 21.0466 11.9385 18.7494C12.8636 16.4651 14.4431 14.505 16.4785 13.1154C20.6082 10.2949 26.0448 10.2949 30.1744 13.1154C32.21 14.505 33.7894 16.4651 34.7144 18.7494C35.6476 21.0466 35.8916 23.5658 35.4164 25.9994C34.9454 28.4262 33.7722 30.6612 32.0424 32.4274C29.7518 34.778 26.6088 36.1038 23.3264 36.1038C20.0442 36.1038 16.9012 34.778 14.6105 32.4274Z" stroke="#7ACB65" stroke-width="3" stroke-linecap="round" stroke-linejoin="round"/>
<path d="M24.419 15.8473C23.5952 15.9346 22.9982 16.6732 23.0854 17.497C23.1728 18.3208 23.9114 18.9179 24.7352 18.8306L24.419 15.8473ZM28.1218 20.8257C28.4448 21.5887 29.325 21.9453 30.088 21.6223C30.8508 21.2993 31.2074 20.4191 30.8844 19.6562L28.1218 20.8257ZM34.3628 31.6153C33.7766 31.0301 32.8268 31.0309 32.2416 31.6173C31.6562 32.2035 31.6572 33.1533 32.2434 33.7385L34.3628 31.6153ZM39.0194 40.5025C39.6058 41.0879 40.5554 41.0871 41.1408 40.5007C41.726 39.9143 41.7252 38.9647 41.1388 38.3793L39.0194 40.5025ZM24.7352 18.8306C26.1802 18.6775 27.5554 19.4876 28.1218 20.8257L30.8844 19.6562C29.803 17.1016 27.1778 15.555 24.419 15.8473L24.7352 18.8306ZM32.2434 33.7385L39.0194 40.5025L41.1388 38.3793L34.3628 31.6153L32.2434 33.7385Z" fill="#7ACB65"/>
</svg>
