<svg width="45" height="45" viewBox="0 0 45 45" fill="none" xmlns="http://www.w3.org/2000/svg">
<path d="M30.8807 17.7556C30.3315 18.3048 30.3315 19.1951 30.8807 19.7443C31.4299 20.2935 32.3201 20.2935 32.8693 19.7443L30.8807 17.7556ZM36.6193 15.9944C37.1685 15.4452 37.1685 14.5548 36.6193 14.0056C36.0701 13.4565 35.1799 13.4565 34.6307 14.0056L36.6193 15.9944ZM34.6307 15.9944C35.1799 16.5435 36.0701 16.5435 36.6193 15.9944C37.1685 15.4452 37.1685 14.5548 36.6193 14.0056L34.6307 15.9944ZM32.8693 10.2556C32.3201 9.70646 31.4299 9.70646 30.8807 10.2556C30.3315 10.8048 30.3315 11.6952 30.8807 12.2444L32.8693 10.2556ZM35.625 16.4062C36.4016 16.4062 37.0312 15.7766 37.0312 15C37.0312 14.2234 36.4016 13.5937 35.625 13.5937V16.4062ZM20.1401 21.7271C19.7134 22.3759 19.8932 23.2479 20.5421 23.6749C21.1909 24.1016 22.0629 23.9218 22.4899 23.2729L20.1401 21.7271ZM22.4899 23.2729C22.9166 22.6241 22.7368 21.7521 22.0879 21.3251C21.4391 20.8984 20.5671 21.0782 20.1401 21.7271L22.4899 23.2729ZM9.375 28.5937C8.59836 28.5937 7.96875 29.2234 7.96875 30C7.96875 30.7766 8.59836 31.4062 9.375 31.4062V28.5937ZM22.4899 21.7271C22.0629 21.0782 21.1909 20.8984 20.5421 21.3251C19.8932 21.7521 19.7134 22.6241 20.1401 23.2729L22.4899 21.7271ZM35.625 31.4062C36.4016 31.4062 37.0312 30.7766 37.0312 30C37.0312 29.2234 36.4016 28.5937 35.625 28.5937V31.4062ZM20.1401 23.2729C20.5671 23.9218 21.4391 24.1016 22.0879 23.6749C22.7368 23.2479 22.9166 22.3759 22.4899 21.7271L20.1401 23.2729ZM9.375 13.5937C8.59836 13.5937 7.96875 14.2234 7.96875 15C7.96875 15.7766 8.59836 16.4062 9.375 16.4062V13.5937ZM32.8693 25.2557C32.3201 24.7065 31.4299 24.7065 30.8807 25.2557C30.3315 25.8049 30.3315 26.6951 30.8807 27.2443L32.8693 25.2557ZM34.6307 30.9943C35.1799 31.5435 36.0701 31.5435 36.6193 30.9943C37.1685 30.4451 37.1685 29.5549 36.6193 29.0057L34.6307 30.9943ZM36.6193 30.9943C37.1685 30.4451 37.1685 29.5549 36.6193 29.0057C36.0701 28.4565 35.1799 28.4565 34.6307 29.0057L36.6193 30.9943ZM30.8807 32.7557C30.3315 33.3049 30.3315 34.1951 30.8807 34.7443C31.4299 35.2935 32.3201 35.2935 32.8693 34.7443L30.8807 32.7557ZM32.8693 19.7443L36.6193 15.9944L34.6307 14.0056L30.8807 17.7556L32.8693 19.7443ZM36.6193 14.0056L32.8693 10.2556L30.8807 12.2444L34.6307 15.9944L36.6193 14.0056ZM35.625 13.5937H31.3125L31.3112 16.4062H35.625V13.5937ZM31.3125 13.5937C27.6808 13.5902 24.2925 15.4155 22.2964 18.4496L24.6461 19.9954C26.1214 17.7527 28.6267 16.4036 31.3112 16.4062L31.3125 13.5937ZM22.2964 18.4496L20.1401 21.7271L22.4899 23.2729L24.6461 19.9954L22.2964 18.4496ZM20.1401 21.7271L17.9839 25.0046L20.3336 26.5504L22.4899 23.2729L20.1401 21.7271ZM17.9839 25.0046C16.5102 27.2449 14.0084 28.5937 11.3268 28.5937L11.3269 31.4062C14.9549 31.4061 18.3396 29.5813 20.3336 26.5504L17.9839 25.0046ZM11.3268 28.5937H9.375V31.4062H11.3269L11.3268 28.5937ZM20.1401 23.2729L22.2964 26.5504L24.6461 25.0046L22.4899 21.7271L20.1401 23.2729ZM22.2964 26.5504C24.2925 29.5845 27.6821 31.4098 31.3138 31.4062L31.3125 28.5937C28.6281 28.5964 26.1214 27.2473 24.6461 25.0046L22.2964 26.5504ZM31.3138 31.4062H35.625V28.5937H31.3125L31.3138 31.4062ZM22.4899 21.7271L20.3336 18.4496L17.9839 19.9954L20.1401 23.2729L22.4899 21.7271ZM20.3336 18.4496C18.3396 15.4187 14.9549 13.5938 11.3269 13.5937L11.3268 16.4062C14.0084 16.4063 16.5101 17.7551 17.9839 19.9954L20.3336 18.4496ZM11.3269 13.5937H9.375V16.4062H11.3268L11.3269 13.5937ZM30.8807 27.2443L34.6307 30.9943L36.6193 29.0057L32.8693 25.2557L30.8807 27.2443ZM34.6307 29.0057L30.8807 32.7557L32.8693 34.7443L36.6193 30.9943L34.6307 29.0057Z" fill="#9EE07E"/>
</svg>
