<svg width="19" height="21" viewBox="0 0 19 21" fill="none" xmlns="http://www.w3.org/2000/svg">
<path d="M6.3125 1V5.22222M12.6875 1V4.16667M1 8.38889H18M9.5 20C7.62331 20 6.22284 18.2834 6.61141 16.4594L6.67728 16.1502C6.90831 15.0657 6.35912 13.9656 5.35029 13.4921L3.11406 12.4423C1.8233 11.8364 1 10.5454 1 9.12714V2.72213C1 1.77102 1.77609 1 2.73346 1H16.2665C17.2239 1 18 1.77102 18 2.72213V9.12714C18 10.5454 17.1767 11.8364 15.8859 12.4423L13.6497 13.4921C12.6409 13.9656 12.0917 15.0657 12.3227 16.1502L12.3886 16.4594C12.7772 18.2834 11.3767 20 9.5 20Z" stroke="white" stroke-width="2" stroke-linecap="round" stroke-linejoin="round"/>
</svg>
