<?xml version="1.0" standalone="no"?>
<!DOCTYPE svg PUBLIC "-//W3C//DTD SVG 20010904//EN"
 "http://www.w3.org/TR/2001/REC-SVG-20010904/DTD/svg10.dtd">
<svg version="1.0" xmlns="http://www.w3.org/2000/svg"
 width="500.000000pt" height="500.000000pt" viewBox="0 0 500.000000 500.000000"
 preserveAspectRatio="xMidYMid meet">
<metadata>
Created by potrace 1.14, written by Peter Selinger 2001-2017
</metadata>
<g transform="translate(0.000000,500.000000) scale(0.100000,-0.100000)"
fill="#000000" stroke="none">
<path d="M2165 4979 c-135 -72 -258 -188 -347 -329 -50 -79 -135 -244 -160
-312 l-21 -58 -52 3 c-66 5 -180 -22 -236 -55 -58 -34 -131 -106 -163 -160
-61 -104 -73 -280 -26 -382 25 -55 25 -54 74 -112 l35 -40 -19 -31 c-17 -29
-61 -155 -59 -171 3 -18 -3 -31 -23 -54 -65 -70 -169 -192 -201 -233 -4 -5
-21 -28 -38 -50 -107 -138 -138 -183 -236 -350 -57 -97 -84 -179 -101 -304
-11 -76 -7 -115 19 -216 38 -145 106 -244 205 -301 40 -23 150 -63 189 -70 22
-3 43 -8 48 -11 10 -6 214 -6 225 0 32 20 70 -81 67 -178 -4 -127 -22 -200
-68 -277 -54 -89 -114 -141 -199 -173 -80 -29 -101 -75 -48 -102 42 -22 118
-13 202 22 12 5 18 0 23 -17 21 -67 119 -150 160 -135 27 11 28 35 3 105 -16
42 -24 82 -22 107 5 54 31 138 56 183 22 39 57 140 63 182 14 88 0 224 -31
305 -5 12 12 19 71 31 66 12 191 56 280 96 147 67 142 65 210 88 33 12 84 23
112 26 50 5 53 4 63 -21 21 -56 14 -101 -55 -335 -58 -193 -84 -300 -110 -445
-8 -44 -17 -91 -20 -105 -3 -14 -8 -41 -11 -60 -3 -19 -8 -44 -11 -55 -3 -11
-7 -29 -9 -40 -2 -11 -9 -51 -18 -90 -13 -64 -34 -166 -51 -255 -11 -53 -14
-400 -4 -461 4 -30 10 -67 13 -84 2 -16 5 -36 5 -42 1 -10 154 -13 731 -13
l729 0 -2 283 c-2 247 4 396 18 447 2 8 7 33 10 55 16 110 24 162 28 180 4 19
13 73 23 140 2 17 9 53 14 80 5 28 12 66 15 85 9 53 86 403 91 408 1 2 36 5
76 7 341 15 661 262 777 601 68 195 62 417 -14 589 -51 116 -144 224 -253 295
-53 34 -53 35 -47 75 6 46 15 113 20 159 1 17 6 63 11 101 13 119 6 559 -11
607 -2 7 -7 31 -10 53 -4 22 -8 45 -9 50 -2 6 -6 28 -11 49 -14 69 -96 255
-127 287 -7 8 -31 40 -52 72 -103 153 -321 289 -560 351 l-98 26 -547 0 c-538
0 -547 0 -586 -21z m936 -309 c114 -116 143 -156 198 -272 68 -146 88 -199
115 -308 42 -166 44 -152 -21 -123 -30 14 -77 31 -104 38 -73 20 -221 17 -309
-6 l-75 -19 -50 21 c-59 26 -137 45 -220 54 -33 4 -63 9 -67 12 -18 10 -248 2
-342 -12 l-48 -8 62 118 c75 142 96 176 176 280 156 204 349 322 528 324 l59
1 98 -100z"/>
</g>
</svg>
