<?xml version="1.0" standalone="no"?>
<!DOCTYPE svg PUBLIC "-//W3C//DTD SVG 20010904//EN"
 "http://www.w3.org/TR/2001/REC-SVG-20010904/DTD/svg10.dtd">
<svg version="1.0" xmlns="http://www.w3.org/2000/svg"
 width="491.000000pt" height="491.000000pt" viewBox="0 0 491.000000 491.000000"
 preserveAspectRatio="xMidYMid meet">
<metadata>
Created by potrace 1.14, written by Peter Selinger 2001-2017
</metadata>
<g transform="translate(0.000000,491.000000) scale(0.100000,-0.100000)"
fill="#000000" stroke="none">
<path d="M2629 4846 c-2 -2 -26 -6 -54 -10 -27 -3 -65 -10 -83 -15 -18 -5 -36
-10 -40 -10 -17 -2 -78 -24 -89 -34 -7 -5 -13 -7 -13 -3 0 9 -106 -49 -149
-81 -94 -69 -123 -116 -115 -185 7 -52 7 -124 0 -163 -2 -12 -22 -30 -50 -44
-31 -16 -55 -38 -71 -65 -28 -49 -37 -100 -16 -101 33 0 18 -21 -16 -24 -21
-1 -51 -4 -68 -5 -16 -2 -66 -7 -110 -11 -44 -4 -82 -9 -85 -10 -3 -2 -29 -6
-59 -10 -63 -8 -65 -8 -156 -29 -243 -57 -371 -126 -461 -249 -139 -191 -148
-344 -29 -514 l43 -62 -13 -45 c-18 -61 -8 -119 23 -131 38 -15 63 -14 115 5
54 20 55 20 100 1 79 -34 192 -61 279 -67 93 -7 164 8 273 56 60 27 140 55
186 66 61 15 227 12 309 -5 130 -27 183 -59 242 -146 45 -66 134 -302 154
-409 2 -11 6 -32 9 -46 10 -47 15 -75 19 -105 2 -16 16 -106 31 -200 14 -93
28 -186 31 -205 3 -19 7 -46 10 -60 2 -14 7 -41 10 -60 3 -19 10 -62 15 -95 6
-33 13 -71 14 -85 2 -14 9 -50 15 -80 6 -30 13 -66 16 -80 3 -14 16 -77 29
-140 13 -63 26 -126 29 -140 3 -14 7 -36 10 -50 10 -43 26 -125 31 -151 3 -13
7 -33 9 -44 15 -65 45 -215 49 -240 3 -16 10 -57 16 -90 6 -33 13 -76 16 -95
5 -42 32 -196 39 -228 10 -43 71 -145 116 -192 145 -151 374 -192 565 -100 82
40 170 126 212 209 15 31 28 58 29 61 0 3 6 25 13 50 21 73 13 479 -13 690 -4
25 -9 65 -12 90 -19 158 -124 579 -183 735 -4 11 -21 61 -36 110 -16 50 -31
95 -34 100 -3 6 -6 15 -7 20 -2 11 -70 210 -81 235 -3 8 -7 20 -8 25 -4 14
-169 450 -190 500 -9 22 -46 101 -82 175 -36 74 -95 196 -130 270 -34 74 -67
142 -71 150 -6 9 -1 26 14 48 37 55 57 138 51 217 -4 60 -1 78 20 125 13 30
29 64 34 75 54 121 57 240 6 279 l-25 18 31 29 c25 24 30 38 32 81 1 29 0 58
-4 63 -3 6 -7 19 -8 29 -2 11 -8 25 -14 33 -6 7 -8 13 -4 13 5 0 2 8 -6 18 -8
9 -21 31 -29 47 -20 40 -180 199 -180 178 0 -3 -8 1 -17 10 -22 19 -119 63
-182 83 -42 14 -242 30 -252 20z m54 -155 c122 -53 282 -193 329 -289 40 -80
31 -135 -34 -217 -48 -60 -58 -67 -114 -81 -32 -9 -65 -20 -71 -26 -7 -6 -13
-7 -13 -4 0 4 -7 1 -15 -8 -14 -13 -21 -12 -72 11 -31 14 -87 31 -125 37 -37
6 -68 14 -68 18 0 4 5 8 10 8 18 0 -16 54 -50 78 -22 17 -48 25 -87 26 -44 2
-59 8 -79 29 -14 15 -28 27 -32 27 -25 1 -32 18 -21 51 20 61 52 129 61 129 5
0 7 4 4 9 -3 5 1 14 9 21 8 7 15 17 15 22 0 27 95 133 146 162 50 29 138 27
207 -3z m-518 -463 c33 -15 33 -46 0 -54 -16 -4 -25 -13 -25 -25 0 -13 -7 -19
-22 -20 -13 -1 -38 -2 -55 -4 -23 -2 -33 2 -33 11 0 8 5 14 10 14 6 0 10 6 10
13 0 15 47 62 70 70 8 3 16 6 17 6 1 1 14 -4 28 -11z m1011 -125 c-2 -27 -5
-49 -6 -50 -3 -4 -7 -20 -9 -35 0 -7 -9 1 -19 17 -11 17 -26 36 -34 43 -14 11
-14 16 -1 42 8 17 24 37 36 45 19 13 22 13 29 0 5 -8 7 -36 4 -62z"/>
</g>
</svg>
