<svg width="150" height="150" viewBox="0 0 150 150" fill="none" xmlns="http://www.w3.org/2000/svg">
<circle cx="75" cy="75" r="75" fill="white"/>
<path fill-rule="evenodd" clip-rule="evenodd" d="M99.1096 104.5H49.8932C47.2442 104.5 45.2881 101.886 46.2872 99.4824C50.9229 88.3674 61.8135 82 74.4995 82C87.1892 82 98.0799 88.3674 102.716 99.4824C103.715 101.886 101.759 104.5 99.1096 104.5ZM59.1875 59.5C59.1875 51.2275 66.0588 44.4999 74.4995 44.4999C82.944 44.4999 89.8114 51.2275 89.8114 59.5C89.8114 67.7725 82.944 74.5 74.4995 74.5C66.0588 74.5 59.1875 67.7725 59.1875 59.5ZM111.834 103.135C109.051 90.5387 100.346 81.2424 88.8889 77.0236C94.9601 72.2349 98.5009 64.491 97.1994 56.0123C95.6912 46.176 87.3386 38.3049 77.2556 37.1574C63.3371 35.5712 51.5315 46.1837 51.5315 59.5C51.5315 66.5875 54.8849 72.9024 60.1139 77.0236C48.6529 81.2424 39.9519 90.5387 37.1651 103.135C36.1545 107.714 39.9212 112 44.7024 112H104.297C109.082 112 112.848 107.714 111.834 103.135Z" fill="#4C8C36"/>
</svg>
