<?xml version="1.0" standalone="no"?>
<!DOCTYPE svg PUBLIC "-//W3C//DTD SVG 20010904//EN"
 "http://www.w3.org/TR/2001/REC-SVG-20010904/DTD/svg10.dtd">
<svg version="1.0" xmlns="http://www.w3.org/2000/svg"
 width="720.000000pt" height="720.000000pt" viewBox="0 0 720.000000 720.000000"
 preserveAspectRatio="xMidYMid meet">
<metadata>
Created by potrace 1.14, written by Peter Selinger 2001-2017
</metadata>
<g transform="translate(0.000000,720.000000) scale(0.100000,-0.100000)"
fill="#000000" stroke="none">
<path d="M3 4653 c2 -1402 4 -2557 3 -2568 0 -19 1 -1031 2 -1077 0 -13 -2
-245 -4 -516 l-5 -492 44 0 c24 0 52 7 63 16 10 8 13 12 6 9 -17 -9 20 66 42
84 9 8 16 19 16 25 0 6 11 23 25 38 14 15 42 60 63 100 21 40 54 98 73 128 20
30 53 82 74 114 20 33 63 94 94 137 31 42 61 85 67 95 16 27 35 9 24 -22 -7
-16 -6 -40 1 -67 5 -23 11 -47 11 -53 1 -6 6 -11 12 -11 6 0 18 -4 27 -7 35
-15 56 109 40 231 -8 61 -8 91 3 135 7 32 11 60 8 63 -7 7 -42 -25 -42 -39 0
-17 -112 -178 -240 -343 -63 -82 -167 -233 -230 -336 -104 -168 -130 -204
-130 -179 0 4 18 36 40 70 22 33 40 64 40 67 0 27 259 422 400 609 49 65 94
134 100 153 8 21 18 33 30 33 23 0 32 36 14 51 -12 10 -13 9 -8 -6 6 -15 4
-16 -14 -6 -12 7 -22 20 -22 30 0 10 -14 29 -31 42 -36 27 -77 99 -57 99 9 0
8 4 -2 11 -11 8 -5 9 22 4 69 -11 97 26 90 121 -3 35 -10 49 -29 61 -25 16
-26 16 -49 -10 -13 -15 -27 -34 -32 -43 -12 -22 -44 -11 -58 21 -8 17 -9 36
-2 62 5 21 11 51 14 67 2 16 9 35 14 41 6 7 10 17 9 21 -1 5 0 11 1 14 5 14
10 63 14 137 7 123 40 244 74 262 42 22 60 -20 59 -144 0 -83 4 -106 21 -135
11 -19 23 -54 27 -76 9 -58 38 -73 96 -50 40 16 42 16 55 -3 25 -34 124 -9
124 31 0 10 5 18 10 18 6 0 10 6 10 13 0 13 43 67 55 67 4 0 18 9 33 20 55 44
48 -23 -15 -125 -20 -33 -42 -63 -49 -67 -7 -5 -24 -46 -39 -92 -18 -57 -39
-98 -66 -131 -22 -26 -43 -54 -47 -60 -4 -7 -17 -15 -29 -19 -18 -6 -24 -2
-29 19 -6 26 19 128 38 152 5 6 8 27 6 45 -3 38 -25 40 -61 7 -11 -10 -26 -19
-33 -19 -7 0 -19 -7 -27 -15 -13 -12 -15 -53 -12 -253 7 -436 18 -572 47 -572
19 0 65 35 109 83 48 53 69 56 69 10 0 -45 -38 -108 -103 -171 -91 -89 -89
-86 -82 -145 6 -45 4 -56 -15 -77 -12 -14 -28 -37 -36 -51 -14 -28 -39 -43
-55 -33 -5 3 -9 21 -9 40 0 69 -81 64 -115 -7 -10 -23 -35 -53 -54 -68 -64
-48 -171 -174 -171 -201 0 -4 -6 -11 -13 -13 -7 -3 -5 -6 6 -6 9 -1 17 3 17 8
0 5 8 12 19 16 10 3 29 14 41 25 17 15 27 17 48 9 34 -13 62 2 88 44 15 25 19
28 22 14 2 -10 -5 -32 -15 -50 -38 -65 -38 -67 17 -67 48 0 50 1 50 28 0 35
10 72 20 72 7 0 25 -76 21 -93 0 -4 126 -6 281 -5 l283 3 3 100 c3 82 -21 296
-34 314 -2 1 -28 -9 -59 -24 -40 -20 -59 -25 -67 -17 -14 14 15 54 92 125 50
47 62 64 70 104 6 27 10 57 9 68 -5 45 2 73 18 79 24 10 33 -4 40 -62 3 -29
10 -52 15 -52 5 0 22 10 37 21 33 24 51 19 51 -16 0 -36 -17 -73 -45 -98 -23
-21 -24 -28 -26 -142 -2 -66 -2 -184 -1 -262 l2 -143 347 0 c190 0 344 3 340
6 -3 4 4 21 17 38 13 17 53 110 90 206 37 96 79 204 93 240 39 99 93 261 98
295 6 32 35 107 46 115 11 8 86 161 100 205 8 22 25 56 40 75 50 67 89 200 58
200 -5 0 -7 5 -4 10 3 6 2 10 -4 10 -6 0 -6 11 1 33 5 17 10 38 11 45 0 6 4
12 8 12 4 0 14 6 21 12 8 7 23 18 33 24 11 6 29 28 39 48 18 36 18 40 2 66
-30 52 -18 79 37 80 31 1 61 29 90 86 40 80 54 87 156 89 58 0 94 5 105 14 12
10 16 10 16 1 0 -14 -76 -243 -114 -341 -25 -66 -25 -67 -6 -84 26 -23 25 -67
-1 -91 -15 -14 -22 -15 -28 -6 -11 18 -24 0 -51 -68 -11 -30 -32 -76 -45 -101
-13 -25 -36 -88 -51 -139 -26 -89 -27 -100 -16 -180 6 -47 10 -98 10 -115 0
-16 9 -57 22 -90 14 -39 23 -85 24 -130 1 -64 -1 -70 -20 -73 -16 -2 -29 8
-50 39 -16 23 -38 44 -49 45 -11 1 -29 5 -40 9 -18 5 -25 -2 -43 -44 -13 -27
-25 -62 -28 -76 -3 -15 -20 -48 -38 -75 -31 -44 -58 -117 -121 -318 l-23 -72
296 2 297 3 6 37 c4 24 0 49 -9 68 -12 25 -12 35 -2 60 7 16 19 30 26 30 8 0
14 5 14 12 0 9 3 9 11 1 7 -7 8 -35 1 -89 -15 -128 -21 -124 178 -124 l167 0
26 105 c14 58 31 113 36 122 18 32 13 -24 -13 -129 l-23 -98 158 0 c88 0 159
3 159 6 0 10 -65 64 -77 64 -8 0 -13 13 -13 33 0 21 -8 41 -20 52 -21 19 -50
14 -50 -10 0 -8 -16 -32 -37 -52 l-36 -38 6 55 c3 30 11 69 18 85 7 17 14 44
16 60 5 51 44 155 57 155 15 0 36 42 36 70 0 21 35 29 42 9 5 -15 36 0 43 22
4 10 13 19 20 19 20 0 24 10 36 96 7 54 18 87 34 108 30 40 57 102 107 251 22
66 44 124 49 130 5 5 9 19 9 32 0 13 18 61 40 107 22 46 40 88 40 94 0 19 68
158 84 171 8 7 17 25 21 40 10 47 12 141 4 147 -12 7 -11 34 1 34 6 0 10 -6
10 -13 0 -6 11 -33 24 -58 13 -25 29 -67 34 -95 6 -27 26 -101 45 -164 40
-132 52 -176 97 -375 11 -50 20 -105 20 -121 0 -28 -3 -31 -36 -32 -41 -2 -74
-34 -72 -72 1 -31 -15 -72 -37 -94 -12 -11 -19 -40 -22 -86 -5 -66 -4 -70 16
-70 21 0 32 7 69 41 19 18 48 30 55 23 2 -3 -1 -21 -8 -41 -12 -33 -11 -38 8
-54 20 -15 20 -18 5 -40 -24 -38 -155 -167 -175 -173 -29 -9 -59 -63 -98 -176
-20 -58 -39 -113 -42 -122 -5 -17 12 -18 258 -18 l264 0 -3 55 c-3 44 -1 56
12 61 23 9 58 -24 50 -48 -3 -10 0 -18 6 -18 6 0 9 4 5 9 -3 5 -1 12 5 16 6 4
8 10 5 15 -3 5 8 11 25 15 16 4 30 10 30 15 0 19 -13 40 -25 40 -7 0 -24 9
-38 20 -14 11 -32 20 -41 20 -31 0 -43 90 -22 158 6 19 10 21 22 11 11 -9 14
-7 14 15 0 18 8 30 28 40 15 8 43 38 62 68 19 29 40 58 48 64 18 14 10 42 -27
88 -16 20 -43 70 -62 111 l-33 75 -21 -20 c-18 -17 -24 -18 -33 -7 -7 8 -9 16
-6 19 3 3 -3 5 -13 4 -15 -1 -18 7 -19 44 0 25 -2 61 -3 80 -4 52 -3 57 19 63
18 5 20 12 18 49 -3 38 -7 45 -39 62 -44 24 -63 50 -64 93 -1 26 1 30 12 21
17 -14 28 -4 19 18 -3 9 -12 14 -21 10 -8 -3 -19 3 -24 13 -8 14 -5 23 14 39
14 12 25 31 25 41 0 11 3 27 6 36 6 14 2 15 -28 10 -29 -5 -38 -3 -49 13 -8
10 -24 24 -37 31 -24 13 -27 48 -4 43 7 -1 12 9 12 23 0 22 3 24 30 18 19 -3
30 -1 30 6 0 6 -14 14 -30 17 -17 4 -30 8 -30 9 0 17 49 89 63 93 9 2 17 9 16
16 -4 34 4 48 36 62 40 16 39 14 23 49 -9 20 -18 25 -37 23 -14 -2 -27 -9 -27
-15 -1 -7 -2 -24 -3 -37 -1 -17 -10 -27 -31 -35 -16 -5 -30 -15 -30 -20 0 -19
-29 -12 -42 9 -8 12 -24 20 -40 20 -37 0 -36 15 2 29 18 6 30 6 30 0 0 -5 9
-9 20 -9 25 0 27 35 4 48 -11 6 -14 16 -9 31 7 23 16 25 63 12 25 -8 32 -7 32
5 0 15 -82 129 -111 154 -9 8 -30 37 -44 64 -22 40 -25 53 -16 68 6 10 11 40
11 68 0 45 -2 50 -25 56 -24 6 -45 31 -45 53 0 24 54 8 132 -38 46 -27 93 -52
105 -56 35 -10 28 12 -9 31 -61 31 -148 105 -148 124 0 12 -16 30 -40 45 -43
27 -49 39 -25 49 13 5 13 9 3 26 -11 18 -10 23 6 36 16 11 17 17 8 26 -18 18
-15 46 7 57 10 6 28 26 40 46 11 19 26 35 33 35 21 1 54 34 61 61 3 13 25 38
48 54 23 17 56 45 73 64 17 18 65 60 106 93 41 33 84 74 95 92 33 54 85 108
99 103 7 -3 51 1 97 9 46 8 94 12 106 9 12 -3 35 -24 51 -48 17 -23 55 -67 86
-97 31 -30 56 -62 56 -71 0 -9 3 -19 8 -23 4 -4 8 -12 8 -17 1 -5 2 -13 3 -17
2 -15 52 -32 76 -26 50 12 40 52 -25 104 -43 34 -49 50 -25 70 21 17 19 33 -4
25 -23 -7 -51 3 -51 20 0 7 -20 16 -46 21 -30 6 -52 17 -61 30 -13 20 -11 23
24 40 l38 19 -67 3 c-43 2 -71 8 -78 17 -16 19 -30 19 -30 0 0 -8 -15 -17 -37
-22 -21 -4 -40 -8 -43 -8 -3 -1 -20 -5 -37 -9 -54 -13 -57 2 -12 55 41 49 42
49 66 34 21 -14 32 -15 76 -4 48 11 140 51 161 70 4 4 7 12 5 18 -2 5 -31 -3
-68 -20 -95 -44 -124 -34 -40 14 101 57 145 106 107 120 -17 5 42 41 95 56 23
7 53 19 67 26 14 7 41 16 60 20 34 7 214 108 226 126 3 5 16 9 29 9 17 0 26
-8 34 -31 12 -34 0 -62 -22 -54 -18 7 -43 -17 -50 -47 -9 -34 -33 -58 -57 -58
-11 0 -43 -11 -72 -24 -85 -39 -140 -62 -180 -75 -20 -7 -42 -19 -48 -27 -18
-20 2 -18 52 6 23 11 51 20 62 20 23 0 77 18 173 56 91 36 106 33 119 -20 16
-71 4 -91 -73 -115 -37 -12 -77 -21 -90 -21 -20 0 -23 4 -18 21 5 15 4 19 -5
14 -6 -4 -9 -16 -7 -27 4 -14 -2 -22 -21 -30 -37 -15 -5 -23 42 -10 30 9 37 7
55 -12 11 -11 25 -42 31 -69 14 -54 4 -77 -36 -77 -29 0 -30 -4 -5 -29 27 -27
43 -91 35 -140 -6 -37 -4 -41 14 -41 27 0 48 -36 57 -99 8 -60 -7 -101 -37
-101 -20 0 -23 -11 -7 -27 6 -6 13 -47 16 -92 5 -65 3 -81 -8 -82 -8 0 2 -5
21 -12 l35 -12 10 -95 c10 -93 11 -95 35 -92 152 15 207 25 220 39 14 14 12
15 -17 10 -31 -6 -32 -6 -26 23 3 17 1 30 -4 30 -5 0 -10 6 -11 13 0 6 -6 31
-13 55 -6 23 -9 46 -5 49 4 4 39 10 78 15 82 8 84 7 94 -59 9 -62 0 -91 -31
-91 -18 1 -25 6 -25 20 0 10 -5 16 -10 13 -17 -11 -11 -33 11 -40 16 -5 19
-12 15 -31 -5 -20 -3 -24 16 -23 24 2 113 -18 138 -31 22 -10 37 -70 21 -80
-9 -5 -10 -10 -2 -14 6 -4 11 -12 11 -18 0 -6 -3 -9 -6 -5 -3 3 -12 1 -19 -6
-9 -9 -9 -16 -1 -30 9 -15 7 -21 -8 -32 -17 -13 -15 -15 23 -25 31 -8 45 -18
52 -37 16 -42 15 -68 -1 -69 -48 -5 -54 -6 -42 -11 6 -2 12 -9 12 -15 0 -8
-18 -6 -58 10 -10 3 -13 -2 -10 -19 2 -17 -3 -27 -19 -34 -33 -14 -28 -24 14
-31 21 -3 62 -18 92 -33 42 -20 56 -33 62 -55 5 -17 7 -31 5 -33 -2 -2 -30 -5
-62 -6 -61 -2 -74 -9 -74 -39 0 -11 8 -18 20 -18 11 0 20 -4 20 -10 0 -5 -16
-10 -36 -10 -19 0 -33 -4 -30 -8 3 -5 45 -25 95 -46 93 -38 101 -47 101 -108
0 -21 -5 -28 -19 -28 -11 0 -22 4 -25 9 -3 5 -19 11 -36 13 -24 4 -30 1 -30
-13 0 -10 -4 -20 -10 -24 -5 -3 -7 -12 -3 -21 3 -9 0 -14 -8 -12 -8 2 -14 -4
-14 -12 0 -9 11 -16 28 -18 29 -4 35 6 15 26 -8 8 -5 14 16 22 36 13 38 13 35
-7 -3 -37 1 -53 16 -53 8 0 15 -5 15 -11 0 -5 -4 -7 -10 -4 -11 7 -11 6 -13
-72 -1 -29 -5 -53 -9 -53 -5 0 -8 4 -8 9 0 13 -68 43 -88 38 -15 -3 -15 -5 3
-12 22 -10 35 -24 35 -42 0 -7 -24 -19 -53 -29 -42 -13 -53 -21 -53 -38 -1
-94 -4 -104 -29 -110 -28 -7 -32 -21 -12 -33 8 -4 16 -18 19 -30 6 -21 3 -22
-25 -17 -17 3 -46 16 -64 30 -30 22 -34 23 -40 8 -3 -9 -1 -25 6 -36 11 -17 8
-24 -16 -49 -31 -32 -58 -37 -67 -13 -7 17 19 74 34 74 24 0 7 18 -30 33 -39
15 -39 15 -30 -4 6 -10 16 -19 23 -19 8 0 7 -4 -3 -9 -8 -6 -17 -8 -21 -5 -4
2 -22 -10 -40 -27 -33 -31 -48 -27 -49 14 0 21 -23 32 -42 21 -18 -12 -58 -5
-75 12 -19 18 -62 29 -73 18 -4 -5 -11 -32 -15 -60 l-6 -50 43 -14 c59 -19 58
-18 48 -44 -8 -21 -5 -24 31 -35 22 -7 55 -9 74 -5 28 5 35 3 35 -10 0 -31
-31 -92 -51 -101 -18 -8 -59 -90 -59 -117 0 -3 14 -14 32 -22 30 -15 33 -15
53 4 25 24 45 26 45 5 0 -20 36 -37 63 -29 12 3 32 16 45 27 l22 20 0 -31 c0
-39 34 -61 67 -44 28 15 43 1 46 -43 2 -38 0 -40 -52 -67 -67 -34 -67 -34 -49
-55 9 -10 19 -28 22 -40 4 -13 21 -26 41 -33 30 -10 35 -16 41 -56 4 -29 2
-49 -6 -59 -15 -18 -37 -20 -42 -3 -6 16 -48 -27 -48 -48 0 -8 7 -22 15 -31 8
-8 13 -18 10 -22 -9 -15 34 -44 68 -46 31 -2 33 0 34 34 1 20 3 65 4 101 3 80
-9 159 -22 139 -6 -10 -9 -6 -9 14 0 15 7 30 15 33 12 5 14 18 9 64 -6 64 -3
69 49 72 35 3 36 4 43 54 3 28 1 68 -5 90 -16 57 -15 59 28 58 38 -2 39 -1 52
43 7 25 12 53 11 62 -5 49 -2 75 10 87 16 16 58 7 58 -13 0 -8 15 -20 34 -28
18 -8 47 -28 62 -45 16 -16 33 -30 37 -30 5 0 25 -16 45 -35 20 -19 40 -35 45
-35 4 0 12 -12 18 -26 5 -15 12 -24 16 -21 3 4 17 -3 31 -13 32 -25 46 -26 32
-1 -5 11 -10 35 -10 53 l0 33 20 -38 c11 -20 20 -43 20 -49 0 -7 11 -26 25
-42 26 -30 32 -70 15 -96 -10 -16 -9 -18 -32 55 -10 29 -19 41 -36 43 l-23 4
25 -41 c14 -22 26 -45 26 -50 0 -4 16 -26 36 -47 20 -22 42 -52 51 -69 11 -22
-1 -13 -44 32 -32 33 -72 80 -90 102 -29 38 -33 40 -48 25 -9 -9 -19 -29 -22
-45 -3 -16 -12 -29 -19 -29 -8 0 -14 -6 -14 -13 0 -19 29 -57 45 -57 19 0 56
-55 49 -73 -15 -39 -63 -18 -79 34 -8 25 -28 13 -22 -12 3 -10 1 -21 -3 -24
-4 -3 -6 -14 -3 -26 3 -12 1 -24 -4 -28 -6 -3 -13 -30 -17 -60 -6 -47 -5 -53
7 -42 12 9 16 7 20 -11 4 -12 2 -27 -4 -34 -5 -6 -8 -20 -8 -30 4 -38 -1 -54
-16 -54 -12 0 -13 4 -6 18 7 14 5 27 -7 49 -52 91 -79 119 -66 67 7 -27 -22
-64 -51 -64 -22 0 -18 -28 7 -41 18 -10 20 -9 15 5 -4 10 -1 16 8 16 8 0 15 8
15 19 0 10 6 24 14 30 11 9 15 8 21 -6 5 -10 7 -26 6 -37 -2 -10 3 -22 11 -27
10 -7 11 -12 1 -28 -27 -43 -9 -51 109 -51 80 0 109 3 106 12 -2 6 -10 14 -18
16 -8 3 -10 0 -5 -8 5 -8 3 -11 -6 -8 -19 6 -44 80 -35 103 6 17 7 17 26 0 10
-9 20 -26 22 -38 3 -21 33 -45 43 -35 4 4 12 22 18 40 23 67 41 28 22 -49 l-8
-33 46 0 c35 0 47 4 50 18 4 16 5 16 6 0 1 -17 18 -18 206 -18 l205 0 0 1365
c0 903 -3 1365 -10 1365 -5 0 -10 12 -10 28 0 21 2 24 10 12 6 -10 10 753 10
2162 0 1731 -3 2178 -12 2185 -7 4 -31 8 -53 8 -33 0 -40 4 -41 20 -3 60 37
55 -428 55 l-424 0 -6 -57 c-7 -62 -35 -153 -47 -153 -4 0 -10 -11 -13 -25 -4
-14 -20 -48 -37 -75 -17 -28 -37 -74 -45 -103 -7 -28 -18 -53 -24 -55 -5 -2
-10 -10 -10 -17 0 -13 -47 -51 -93 -75 -45 -23 -67 -70 -77 -166 -9 -84 -10
-87 -52 -129 -38 -37 -49 -42 -90 -43 -41 -1 -50 3 -92 44 -25 24 -46 51 -46
59 0 8 -3 15 -8 15 -4 0 -18 22 -31 50 -22 45 -65 100 -48 60 105 -246 120
-307 115 -455 -4 -99 -7 -116 -33 -164 -32 -57 -73 -95 -117 -106 -28 -7 -39
-25 -16 -25 24 0 81 -55 102 -99 18 -39 21 -64 20 -161 0 -105 -3 -124 -36
-221 -39 -113 -126 -295 -204 -425 -46 -77 -47 -81 -45 -153 1 -41 4 -77 6
-81 2 -4 0 -47 -5 -97 -11 -105 -48 -229 -96 -325 -19 -38 -32 -68 -29 -68 3
0 36 32 74 72 49 50 73 69 85 65 15 -6 14 -11 -6 -51 -14 -26 -38 -53 -58 -65
-19 -11 -48 -34 -64 -51 -30 -31 -56 -39 -56 -18 0 7 -19 -6 -42 -29 -24 -22
-63 -53 -87 -68 -24 -15 -65 -47 -90 -72 -25 -25 -64 -53 -86 -63 -22 -9 -76
-43 -119 -75 -47 -33 -94 -59 -115 -62 l-36 -6 19 21 c19 22 19 22 -7 22 -14
0 -38 -5 -53 -11 -16 -5 -58 -14 -94 -19 -36 -5 -76 -12 -90 -15 -72 -19 -129
-26 -166 -22 -28 3 -54 -2 -79 -14 -21 -11 -47 -19 -57 -19 -10 0 -18 -4 -18
-10 0 -14 41 -12 72 4 28 15 94 25 168 27 25 1 68 7 95 14 28 7 80 16 118 20
75 7 88 -4 35 -31 -41 -21 -177 -56 -189 -48 -5 2 -17 0 -28 -6 -11 -5 -33
-11 -48 -13 -16 -2 -35 -7 -43 -12 -8 -5 -80 -8 -161 -8 -191 1 -332 24 -307
49 12 11 192 43 218 37 18 -3 30 -1 30 5 0 11 -66 19 -172 22 -54 1 -68 -2
-68 -13 0 -28 -66 -38 -76 -12 -5 11 -22 15 -62 15 -59 0 -65 -10 -10 -16 17
-2 37 -9 43 -15 15 -17 -134 -3 -185 17 -46 19 -39 34 18 34 22 0 32 5 32 15
0 10 -10 15 -32 15 -18 0 -44 3 -57 7 -16 4 -22 3 -17 -5 3 -6 -1 -17 -9 -25
-21 -22 -109 -12 -218 25 -50 17 -123 33 -172 37 -52 5 -92 14 -103 23 -40 36
-102 58 -160 58 -36 0 -66 6 -78 15 -25 19 -31 19 -37 -5 -6 -22 -31 -26 -72
-10 -20 8 -26 15 -22 30 8 30 -16 42 -89 45 -50 2 -71 8 -88 24 -14 14 -35 21
-59 21 -43 0 -61 25 -34 45 33 24 15 50 -27 39 -22 -5 -24 -10 -19 -35 5 -26
3 -29 -19 -29 -14 0 -39 5 -57 11 -40 14 -38 40 4 53 17 6 32 11 33 12 2 1 -4
19 -14 39 -13 27 -14 39 -5 48 16 16 14 37 -4 37 -8 0 -15 -8 -15 -18 0 -21
-18 -42 -37 -42 -7 0 -13 9 -13 20 0 11 -5 20 -10 20 -6 0 -15 12 -20 26 -7
19 -15 24 -29 19 -12 -3 -29 3 -48 19 l-29 25 -27 -29 c-15 -15 -27 -33 -27
-39 0 -17 -18 -22 -53 -16 -32 6 -34 9 -31 43 2 42 -5 60 -17 41 -5 -9 -11 -6
-20 14 -16 34 -30 34 -56 -1 -16 -21 -30 -29 -55 -30 -45 -2 -68 6 -68 24 0 8
-7 25 -16 38 -8 13 -11 26 -7 29 9 5 184 32 194 29 4 0 46 -6 94 -12 79 -10
94 -9 151 10 85 27 125 26 158 -5 28 -26 48 -24 75 9 11 13 33 15 140 9 69 -3
130 -9 135 -14 6 -5 5 -17 -2 -31 -15 -31 -26 -108 -15 -108 4 0 22 9 38 20
17 11 45 20 63 20 37 0 41 14 10 33 -80 48 -79 47 -68 67 6 12 21 20 35 20 34
0 32 17 -2 21 -30 4 -583 1 -668 -3 -36 -2 -50 1 -50 10 0 8 -8 19 -17 26 -13
10 -15 15 -6 24 9 9 8 12 -5 12 -9 0 -26 -9 -37 -20 -19 -19 -23 -20 -50 -7
-25 13 -30 13 -47 -5 -27 -26 -101 -16 -113 17 -10 26 -31 37 -50 25 -7 -4
-32 -1 -57 8 -47 18 -100 80 -89 107 4 10 -1 15 -15 15 -23 0 -37 29 -19 40 8
5 10 14 5 26 -5 11 -9 25 -9 33 -1 8 -6 16 -12 18 -10 3 -74 -142 -74 -166 0
-4 -8 -15 -18 -24 -15 -13 -25 -14 -60 -5 -34 8 -52 22 -85 64 -23 30 -50 54
-59 54 -10 0 -24 13 -33 29 -20 40 -34 46 -43 22 -7 -19 -10 -17 -34 20 -20
30 -29 61 -34 110 -4 38 -11 72 -15 75 -5 3 -9 22 -9 42 0 20 -9 48 -19 61
-14 18 -17 35 -14 63 4 23 1 38 -5 38 -18 0 -21 27 -6 55 8 15 14 35 14 45 0
40 71 163 85 148 4 -4 0 -35 -9 -70 -9 -35 -16 -75 -17 -88 -2 -42 29 -151 49
-174 11 -11 23 -31 27 -43 10 -36 32 -26 26 11 -1 4 -2 24 -3 42 -1 19 -5 37
-10 40 -4 3 -8 16 -8 30 0 14 -6 27 -14 30 -11 4 -14 26 -14 87 0 45 2 85 5
90 8 13 23 -14 23 -39 0 -12 6 -24 14 -27 7 -3 17 -27 21 -54 4 -26 12 -57 18
-68 7 -11 19 -47 27 -80 13 -49 20 -61 38 -63 13 -2 21 1 20 8 -4 14 49 23 57
9 4 -5 -1 -9 -9 -9 -23 0 -32 -48 -12 -63 9 -7 31 -47 49 -90 18 -44 37 -78
42 -78 5 0 11 29 13 63 4 66 24 113 56 132 14 8 20 8 23 0 2 -8 18 -10 42 -7
34 5 41 2 56 -21 10 -14 15 -33 11 -41 -7 -20 26 -76 42 -70 8 3 24 5 36 5 27
0 52 19 60 45 4 15 -2 25 -24 40 -36 24 -44 43 -29 61 16 20 56 17 95 -6 20
-13 35 -17 39 -10 3 5 24 10 45 10 30 0 40 5 45 20 6 20 45 29 45 10 0 -5 -7
-10 -15 -10 -8 0 -15 -6 -15 -14 0 -16 35 -31 62 -27 9 1 19 -2 22 -7 8 -13
-15 -205 -26 -219 -18 -22 16 -15 35 7 14 16 14 20 2 20 -9 0 -12 6 -9 15 4 8
12 15 19 15 7 0 15 -7 19 -15 10 -27 36 -17 36 14 0 16 4 31 9 33 18 6 19 72
2 91 -15 18 -14 18 24 11 22 -4 56 -18 76 -31 26 -17 43 -22 66 -17 18 3 33 1
37 -5 4 -6 18 -11 31 -11 18 0 23 4 19 15 -7 17 6 19 56 6 64 -16 106 -22 90
-12 -12 8 -12 11 4 17 14 5 24 0 38 -19 16 -22 28 -27 62 -27 29 0 65 -12 116
-38 79 -41 80 -41 149 -10 32 15 50 17 65 10 61 -27 74 -32 111 -41 22 -5 49
-12 60 -16 21 -7 -38 29 -89 55 -62 32 -37 39 46 13 113 -36 195 -35 263 1 28
15 65 36 83 48 l32 20 -10 -26 c-5 -15 -22 -38 -37 -51 l-28 -24 35 -1 c25 0
45 -9 68 -30 18 -16 37 -30 43 -30 5 0 9 -5 9 -11 0 -7 11 -8 29 -4 17 4 40 1
52 -6 20 -10 25 -8 44 15 18 22 24 25 33 13 8 -10 8 -17 1 -24 -8 -8 -5 -14
10 -22 12 -7 21 -18 21 -26 0 -8 4 -15 9 -15 5 0 13 -9 16 -20 3 -11 15 -20
26 -20 14 0 19 7 19 30 0 19 5 30 14 30 21 0 30 -19 13 -26 -15 -6 -17 -20 -4
-40 3 -6 -3 -20 -14 -30 -19 -17 -20 -17 -13 2 6 17 4 17 -17 -4 -20 -19 -22
-24 -9 -32 12 -8 12 -13 -2 -42 -8 -18 -18 -47 -22 -65 -6 -26 -4 -34 14 -43
26 -14 18 -25 -18 -25 -22 0 -27 -4 -25 -22 3 -21 -2 -23 -40 -24 -23 -1 -46
0 -52 1 -5 1 -19 2 -30 3 -11 0 -26 5 -33 10 -22 17 -21 3 2 -24 12 -14 30
-28 41 -32 24 -10 9 -25 -33 -33 -21 -4 -32 -3 -32 5 0 23 -126 55 -155 39 -9
-6 -27 -7 -41 -4 -21 6 -23 9 -14 26 6 11 19 20 30 20 22 0 120 48 120 59 0
18 -13 18 -53 -1 -34 -17 -54 -20 -117 -15 l-75 6 35 -17 c19 -9 37 -18 39
-19 10 -7 8 -69 -3 -82 -8 -11 -8 -13 2 -7 17 10 15 -10 -4 -39 -18 -27 -13
-78 9 -109 20 -28 145 -38 187 -16 22 12 26 43 11 83 -12 31 -2 45 29 41 14
-1 28 -3 33 -3 4 -1 7 -25 7 -54 0 -66 19 -87 76 -87 49 0 127 23 132 39 2 6
-1 25 -7 42 -8 22 -7 35 1 49 11 16 8 24 -17 50 -16 16 -26 32 -23 35 9 9 55
-13 61 -29 4 -9 12 -13 19 -11 8 3 22 -1 32 -8 16 -11 16 -17 6 -34 -11 -17
-9 -27 11 -68 26 -53 42 -59 47 -20 3 19 9 25 29 25 22 0 25 -4 21 -25 -4 -21
-1 -25 18 -25 20 0 22 4 17 34 -3 18 0 43 6 54 16 31 4 74 -19 67 -10 -3 -25
2 -35 11 -10 10 -35 18 -59 19 -23 1 -50 6 -59 11 -14 8 -13 13 13 41 17 18
30 43 30 57 0 15 4 26 10 26 12 0 40 54 40 78 0 22 26 37 33 19 3 -7 8 -4 12
8 11 29 36 55 52 55 10 0 13 -20 13 -82 0 -46 7 -110 15 -143 18 -76 19 -72
-6 -78 -26 -7 -15 -27 15 -27 18 0 27 -11 44 -52 12 -29 47 -86 77 -127 31
-40 55 -74 53 -75 -35 -21 -59 -23 -98 -10 -44 15 -94 11 -106 -8 -4 -6 -2 -8
4 -4 13 8 62 -13 62 -27 0 -13 -74 -1 -78 13 -2 5 -8 10 -13 10 -5 0 0 -15 11
-32 26 -43 26 -45 -15 -59 -43 -16 -28 -29 32 -29 23 0 46 -6 50 -12 4 -7 18
-18 30 -25 28 -16 111 7 139 38 19 22 19 22 -6 14 -14 -4 -54 -10 -88 -12 -60
-5 -64 -4 -58 15 4 13 1 22 -9 26 -17 6 -21 26 -5 26 6 0 24 -9 39 -21 23 -17
37 -20 70 -14 42 7 59 19 41 30 -6 4 -8 10 -5 15 7 12 76 0 95 -16 8 -7 28
-18 44 -24 23 -8 11 8 -55 78 -91 96 -145 183 -187 302 -26 72 -27 83 -26 285
0 177 3 228 22 322 83 415 303 636 671 674 80 9 97 14 110 32 9 12 47 57 86
100 111 123 173 208 190 256 58 170 -53 408 -314 674 -381 390 -711 523 -987
397 -65 -29 -85 -47 -39 -36 14 4 25 2 25 -4 0 -5 6 -10 13 -10 20 -1 56 -36
67 -65 22 -58 3 -298 -27 -339 -34 -45 -66 -58 -119 -46 -26 6 -53 19 -61 28
-28 36 -55 109 -55 152 -1 54 29 199 45 220 7 8 -33 -30 -89 -85 -150 -148
-258 -303 -371 -527 -72 -145 -74 -158 -28 -182 36 -20 155 -139 155 -156 0
-4 39 -8 88 -8 100 1 174 -22 232 -71 46 -40 19 -41 -53 -3 -48 25 -61 27
-164 27 l-111 0 -26 43 c-16 26 -31 40 -38 36 -6 -4 -8 -3 -5 3 8 13 -57 74
-116 108 -51 29 -52 33 -20 102 8 18 11 37 7 44 -4 7 -3 9 3 6 5 -3 27 31 49
76 21 45 41 84 44 87 16 16 30 52 24 62 -4 6 -3 8 4 4 11 -6 55 57 55 80 0 7
4 11 8 9 11 -7 50 65 43 77 -4 7 -2 8 4 4 6 -4 16 4 23 16 7 13 15 25 19 28 3
3 28 32 55 65 26 33 55 65 62 70 8 6 15 17 16 25 4 24 18 41 28 34 12 -7 119
92 110 102 -3 4 -1 4 6 0 7 -3 34 7 61 24 43 26 103 55 124 60 4 1 22 6 40 11
18 6 60 12 93 15 33 3 66 7 73 9 7 3 11 1 8 -4 -3 -5 13 -9 37 -8 23 0 52 -5
65 -12 12 -6 22 -9 22 -7 0 7 151 -58 215 -92 27 -15 72 -44 99 -65 27 -21 55
-36 63 -33 8 3 12 2 9 -3 -3 -4 17 -27 44 -50 51 -43 72 -53 49 -23 -13 15
-12 16 3 3 10 -7 16 -17 13 -21 -7 -11 214 -226 227 -222 5 1 7 -2 4 -7 -8
-13 34 -62 46 -55 6 4 8 2 5 -3 -4 -6 2 -22 13 -35 105 -134 180 -315 180
-434 0 -110 -36 -180 -159 -313 -33 -36 -58 -69 -55 -73 3 -4 -2 -8 -11 -8
-11 0 -15 -5 -11 -16 3 -8 2 -12 -3 -9 -6 3 -26 -14 -46 -39 -37 -43 -38 -44
-129 -55 -241 -31 -390 -110 -500 -264 -117 -165 -170 -357 -183 -667 -11
-288 61 -469 259 -648 l41 -37 -16 31 c-9 17 -34 76 -55 130 -131 327 -106
678 73 1034 110 218 242 353 394 400 35 11 66 18 69 15 9 -8 -21 -33 -43 -37
-11 -2 -23 -7 -27 -13 -4 -5 -12 -11 -18 -11 -5 -1 -15 -2 -21 -3 -5 0 -8 -5
-4 -10 3 -5 0 -13 -6 -17 -8 -4 -9 -3 -5 4 4 7 2 12 -3 12 -14 0 -151 -129
-151 -142 0 -5 5 -6 12 -2 7 4 8 3 4 -5 -4 -6 -11 -9 -16 -6 -5 3 -20 -9 -33
-27 -38 -50 -107 -190 -100 -201 3 -6 2 -7 -4 -4 -18 11 -107 -242 -97 -278 4
-14 3 -16 -4 -7 -7 10 -11 4 -16 -22 -4 -20 -4 -41 -1 -46 3 -6 2 -10 -3 -10
-5 0 -8 -11 -7 -25 2 -14 -1 -25 -7 -25 -6 0 -8 -6 -5 -14 3 -7 1 -18 -5 -24
-6 -6 -6 -12 0 -16 6 -3 6 -23 0 -53 -12 -59 -1 -265 16 -304 4 -9 6 -20 5
-25 -1 -5 -1 -20 0 -34 1 -20 3 -22 11 -10 8 11 9 7 4 -14 -5 -22 -4 -27 6
-21 8 5 11 4 6 -3 -16 -27 83 -210 106 -196 6 4 8 3 5 -4 -13 -19 119 -108
149 -101 5 1 17 -1 27 -6 17 -7 72 -3 126 9 56 13 158 75 216 131 47 47 73 64
119 78 45 15 70 31 113 74 36 37 52 61 48 71 -3 9 -3 13 1 9 4 -4 14 2 22 14
8 11 12 23 8 26 -3 3 2 12 10 20 8 9 13 22 10 30 -3 8 -2 12 3 9 8 -6 38 53
45 89 3 11 12 49 21 84 20 75 25 190 13 279 -8 60 -7 65 28 130 20 37 40 69
44 72 16 11 91 164 86 177 -3 8 -2 11 4 8 10 -6 37 49 82 170 23 61 31 98 32
154 0 44 3 64 7 50 6 -22 7 -21 8 7 1 17 -2 34 -6 38 -5 4 -8 35 -8 69 -1 67
-26 123 -52 113 -8 -3 -11 -2 -8 4 7 11 -32 33 -45 25 -6 -3 -10 -3 -10 2 0 8
-33 12 -103 13 -30 0 -38 4 -35 16 4 24 66 54 109 54 44 0 105 24 137 53 12
12 28 41 34 64 6 24 14 43 18 43 4 0 7 49 6 110 0 60 -4 110 -8 110 -4 0 -5 9
-3 20 2 11 0 20 -6 20 -5 0 -8 3 -7 8 4 15 -12 73 -19 69 -5 -3 -9 9 -9 25 -2
38 -94 219 -107 211 -6 -3 -8 -2 -4 3 12 20 -116 190 -134 178 -5 -3 -6 1 -4
9 7 16 -27 49 -46 45 -9 -2 -13 4 -11 15 2 9 -1 17 -5 17 -4 0 -33 23 -63 50
-30 28 -60 48 -68 45 -7 -2 -10 0 -7 5 7 12 -55 51 -68 43 -6 -3 -7 -2 -4 4 3
5 -7 20 -24 32 -40 29 -228 127 -313 162 l-69 29 -532 0 c-513 0 -534 -1 -591
-21 -32 -11 -63 -22 -69 -23 -40 -9 -84 -29 -80 -37 4 -5 -2 -6 -11 -2 -12 4
-15 3 -10 -5 5 -8 1 -10 -10 -5 -13 5 -15 3 -9 -7 5 -9 4 -11 -4 -6 -15 9
-123 -33 -116 -44 3 -5 0 -12 -6 -16 -8 -4 -9 -3 -5 4 10 17 1 15 -45 -8 -22
-12 -37 -25 -34 -30 3 -5 0 -7 -8 -4 -8 3 -18 0 -23 -7 -5 -8 -3 -10 6 -4 9 5
11 4 6 -4 -4 -6 -12 -9 -17 -5 -37 22 -251 -189 -235 -232 3 -8 2 -13 -3 -9
-16 9 -23 -54 -16 -134 5 -54 10 -70 16 -56 5 12 6 0 3 -30 -4 -31 -2 -45 3
-37 7 8 9 1 9 -22 -1 -19 -5 -32 -10 -28 -5 3 -6 -11 -3 -34 4 -22 3 -33 -2
-26 -6 10 -10 4 -15 -20 -3 -18 -9 -44 -12 -58 -3 -14 -7 -34 -9 -45 -3 -19
-20 -88 -32 -129 -4 -13 -8 -15 -16 -7 -13 13 -47 15 -47 2 0 -5 -9 -7 -19 -4
-47 12 -187 -84 -218 -148 -42 -91 -48 -108 -31 -89 13 15 39 20 48 9 3 -3 31
-9 62 -13 50 -5 59 -4 67 13 6 10 7 22 3 26 -4 5 -1 5 6 0 9 -4 25 4 45 23 35
34 83 58 123 61 8 0 13 5 10 9 -3 5 9 7 27 4 20 -2 27 0 20 5 -8 6 2 9 26 8
22 0 36 -4 33 -9 -3 -5 2 -7 11 -3 9 3 16 3 15 -1 -2 -4 25 -34 60 -66 34 -32
62 -63 62 -68 0 -16 -37 -8 -56 13 -40 46 -97 79 -134 79 -61 0 -135 -28 -190
-72 -40 -32 -62 -42 -94 -43 -22 -1 -93 -5 -156 -8 -63 -3 -103 -3 -87 -1 22
4 33 18 61 79 61 132 170 222 285 234 l55 6 28 125 c34 151 34 158 20 289 -14
118 -9 156 24 223 63 125 287 276 562 378 l77 29 -1723 1 -1722 0 3 -2547z
m4222 2387 c3 -6 -1 -7 -9 -4 -18 7 -21 14 -7 14 6 0 13 -4 16 -10z m-226 -50
c89 -22 287 -117 350 -169 l34 -28 -21 -29 c-32 -43 -21 -95 29 -135 22 -17
39 -36 39 -42 0 -7 7 -25 16 -42 20 -39 24 -113 6 -124 -8 -5 -12 -12 -10 -16
5 -13 -111 -88 -140 -91 -36 -4 -95 32 -111 67 -7 16 -18 29 -26 29 -18 0 -9
109 11 131 18 20 21 113 5 133 -7 8 -11 18 -10 22 1 5 1 11 -1 14 -8 23 -6 62
4 72 18 18 21 124 4 126 -7 1 -59 4 -116 7 -87 4 -113 10 -168 35 -35 17 -64
34 -64 39 0 26 63 26 169 1z m-2831 -293 c22 -26 -113 -389 -168 -452 -10 -11
-32 -47 -50 -80 -18 -33 -42 -73 -55 -90 -12 -16 -34 -54 -49 -84 -15 -29 -39
-65 -52 -80 -13 -14 -24 -29 -24 -33 0 -5 -5 -8 -12 -8 -6 0 -19 -7 -28 -15
-15 -13 -21 -13 -56 -1 -21 8 -32 15 -24 16 11 0 9 4 -5 12 -11 6 -21 12 -22
13 -7 5 48 105 58 105 5 0 8 4 5 9 -3 4 3 16 14 26 11 10 17 21 15 25 -3 4 2
10 10 14 8 3 15 12 15 19 0 8 9 22 20 32 11 10 20 23 20 30 0 6 6 17 13 23 6
7 12 16 13 20 1 11 28 66 35 72 3 3 20 32 36 65 45 91 252 375 274 375 3 0 11
-6 17 -13z m3553 -14 c13 -16 12 -17 -3 -4 -10 7 -18 15 -18 17 0 8 8 3 21
-13z m60 -60 c13 -16 12 -17 -3 -4 -10 7 -18 15 -18 17 0 8 8 3 21 -13z
m-3363 -435 c7 -7 8 -17 1 -30 -7 -14 -6 -18 6 -18 18 0 19 -11 3 -29 -9 -9
-9 -12 -1 -7 15 8 23 -14 12 -35 -7 -15 -20 -88 -20 -119 0 -46 -10 -62 -34
-58 -13 3 -22 1 -19 -3 3 -5 -5 -9 -17 -9 -26 0 -59 27 -59 47 0 8 -4 12 -9 9
-9 -6 -5 23 6 54 3 8 7 21 9 27 1 7 9 20 18 29 9 8 16 22 16 30 0 8 4 14 9 14
7 0 14 15 19 43 3 17 33 67 40 67 5 0 13 -5 20 -12z m3659 -40 c-3 -8 -6 -5
-6 6 -1 11 2 17 5 13 3 -3 4 -12 1 -19z m20 -80 c-3 -8 -6 -5 -6 6 -1 11 2 17
5 13 3 -3 4 -12 1 -19z m-152 -59 c8 -57 -36 -169 -65 -169 -45 1 -67 44 -54
108 6 30 94 116 106 104 5 -5 11 -24 13 -43z m1428 -82 c3 -8 1 -20 -4 -28
-10 -15 -10 -14 -14 19 -2 24 10 30 18 9z m-930 -84 c-13 -2 -35 -2 -50 0 -16
2 -5 4 22 4 28 0 40 -2 28 -4z m-3601 -57 c9 0 14 -4 11 -9 -3 -5 -31 -6 -62
-3 -81 8 -81 9 -81 18 0 4 26 5 58 1 31 -4 65 -7 74 -7z m101 7 c-7 -2 -19 -2
-25 0 -7 3 -2 5 12 5 14 0 19 -2 13 -5z m-246 -9 c-3 -3 -12 -4 -19 -1 -8 3
-5 6 6 6 11 1 17 -2 13 -5z m-247 -13 c0 -10 -68 -20 -87 -13 -7 2 -10 8 -7
13 7 12 94 12 94 0z m203 2 c-7 -2 -19 -2 -25 0 -7 3 -2 5 12 5 14 0 19 -2 13
-5z m1302 -33 c8 -13 -25 -13 -45 0 -12 8 -9 10 12 10 15 0 30 -4 33 -10z
m-535 -10 c0 -5 -2 -10 -4 -10 -3 0 -8 5 -11 10 -3 6 -1 10 4 10 6 0 11 -4 11
-10z m203 -19 c15 -1 27 -5 27 -11 0 -11 -140 -14 -177 -4 -46 13 -21 22 50
19 39 -2 84 -4 100 -4z m2704 -5 c12 -1 19 -3 17 -5 -2 -3 6 -15 18 -29 35
-37 31 -163 -11 -305 -18 -59 -29 -113 -25 -119 4 -7 3 -8 -4 -4 -7 4 -18 -16
-31 -56 -11 -35 -32 -88 -47 -118 l-27 -55 -24 80 c-13 44 -26 92 -28 107 -8
51 -59 141 -113 199 l-54 59 21 33 c11 19 19 37 16 40 -3 4 -2 5 1 3 8 -6 99
93 99 108 0 6 7 11 15 12 8 0 35 10 60 22 25 12 52 22 60 22 10 1 9 4 -5 11
-15 7 -13 8 10 2 17 -3 40 -7 52 -7z m-3904 -13 c-7 -2 -19 -2 -25 0 -7 3 -2
5 12 5 14 0 19 -2 13 -5z m685 -2 c34 -17 118 -44 156 -50 71 -11 49 -41 -30
-41 -20 0 -39 9 -54 25 -13 14 -29 25 -35 25 -6 0 -26 11 -45 25 -33 24 -28
34 8 16z m587 -1 c3 -5 1 -10 -4 -10 -6 0 -11 5 -11 10 0 6 2 10 4 10 3 0 8
-4 11 -10z m-760 -10 c3 -5 1 -10 -4 -10 -6 0 -11 5 -11 10 0 6 2 10 4 10 3 0
8 -4 11 -10z m-618 -31 c-25 -16 -63 -32 -84 -35 l-38 -5 24 18 c20 16 108 49
135 52 5 1 -11 -13 -37 -30z m698 13 c-3 -3 -11 0 -18 7 -9 10 -8 11 6 5 10
-3 15 -9 12 -12z m1088 3 c1 -5 -10 -11 -25 -13 -16 -2 -28 1 -28 7 0 20 49
26 53 6z m-745 -9 c15 -7 40 -17 56 -22 43 -13 45 -34 4 -34 -22 0 -49 11 -76
31 -23 17 -42 33 -42 35 0 9 33 3 58 -10z m429 8 c-3 -3 -12 -4 -19 -1 -8 3
-5 6 6 6 11 1 17 -2 13 -5z m68 -4 c8 -13 -25 -13 -45 0 -12 8 -9 10 12 10 15
0 30 -4 33 -10z m152 4 c-3 -3 -12 -4 -19 -1 -8 3 -5 6 6 6 11 1 17 -2 13 -5z
m263 -4 c0 -5 -12 -10 -26 -10 -14 0 -23 4 -19 10 3 6 15 10 26 10 10 0 19 -4
19 -10z m-1685 -10 c3 -5 2 -10 -4 -10 -5 0 -13 5 -16 10 -3 6 -2 10 4 10 5 0
13 -4 16 -10z m393 -9 c3 -8 -1 -12 -9 -9 -7 2 -15 10 -17 17 -3 8 1 12 9 9 7
-2 15 -10 17 -17z m-468 -26 c-13 -16 -51 -19 -113 -8 -56 9 -26 21 56 22 61
1 68 -1 57 -14z m130 5 c11 -8 7 -9 -15 -4 -37 8 -45 14 -19 14 10 0 26 -5 34
-10z m350 -25 c-16 -19 66 -91 86 -74 8 6 14 18 14 26 0 11 7 13 24 9 14 -3
28 -2 31 4 8 13 45 13 45 0 0 -5 -9 -10 -20 -10 -11 0 -20 -6 -20 -14 0 -8 -9
-18 -20 -21 -11 -3 -20 -13 -20 -21 0 -17 -12 -18 -28 -2 -6 6 -14 9 -17 6 -4
-3 12 -30 34 -59 23 -30 41 -57 41 -61 0 -5 5 -8 11 -8 6 0 25 -10 42 -22 17
-13 45 -28 61 -34 17 -6 29 -15 26 -20 -8 -15 -82 -4 -108 17 -14 10 -32 19
-41 19 -20 0 -48 36 -76 97 -11 24 -27 43 -35 43 -30 0 -60 30 -60 60 0 16 -4
31 -9 34 -5 3 -11 14 -13 24 -4 15 1 18 29 19 26 1 31 -2 23 -12z m661 0 c16
-9 34 -13 39 -10 6 3 10 2 10 -4 0 -5 -18 -12 -41 -16 -58 -10 -50 -37 15 -47
64 -9 71 -18 13 -18 -42 0 -77 -18 -77 -40 0 -13 34 -22 38 -11 2 7 28 9 73 5
66 -7 70 -6 76 15 6 22 18 27 28 11 3 -5 17 -10 31 -10 20 0 24 -5 24 -33 0
-25 -8 -39 -35 -61 -19 -16 -35 -35 -35 -42 0 -7 -9 -18 -21 -25 -16 -8 -20
-17 -16 -37 3 -15 -2 -40 -10 -55 -14 -27 -15 -28 -33 -12 -18 16 -19 16 -32
-4 -15 -25 -40 -26 -99 -5 -24 8 -69 17 -99 18 -81 5 -153 41 -122 60 13 8 6
80 -8 84 -9 3 -11 -5 -8 -27 4 -24 1 -31 -13 -31 -19 0 -31 23 -23 44 3 8 0
17 -5 21 -12 7 -5 25 9 25 5 0 6 -8 3 -17 -5 -13 -2 -15 11 -10 10 4 28 7 41
7 20 0 23 5 21 32 -1 37 22 49 47 23 24 -23 56 -20 50 5 -4 15 -11 19 -24 15
-25 -8 -78 24 -85 52 -4 13 -13 23 -21 23 -10 0 -14 7 -10 20 3 13 -2 25 -16
35 -36 25 6 18 58 -10 26 -13 61 -27 78 -30 27 -5 34 -2 42 17 7 16 19 23 40
24 56 1 59 2 45 19 -17 20 1 20 41 0z m-141 -15 c0 -5 -11 -10 -25 -10 -14 0
-25 5 -25 10 0 6 11 10 25 10 14 0 25 -4 25 -10z m-805 -42 c21 -11 76 -58
121 -104 52 -53 88 -82 97 -79 17 7 43 -20 28 -30 -19 -11 -120 45 -136 74
-21 42 -124 125 -172 141 -24 7 -43 17 -43 21 0 12 62 -1 105 -23z m-355 -37
c0 -19 -86 -76 -126 -83 -39 -6 -18 25 36 54 30 16 59 33 65 39 15 15 25 11
25 -10z m1920 -6 c7 -8 23 -15 36 -15 27 0 31 -12 10 -29 -10 -8 -19 -6 -39 9
-14 11 -34 20 -45 20 -24 0 -38 16 -20 23 24 10 46 7 58 -8z m-149 -19 c14 -7
38 -16 53 -20 15 -4 32 -18 38 -32 9 -20 17 -25 37 -21 31 6 61 -8 61 -28 0
-21 -42 -19 -71 4 -44 34 -113 59 -162 59 -56 -1 -62 3 -47 31 13 24 52 28 91
7z m-766 -6 c4 -6 -5 -10 -19 -10 -14 0 -26 5 -26 10 0 6 9 10 19 10 11 0 23
-4 26 -10z m1181 0 c8 0 14 -7 14 -15 0 -11 11 -14 48 -11 26 2 52 5 57 7 15
3 45 -12 45 -23 0 -5 -10 -7 -22 -3 -22 6 -22 6 2 -14 l25 -21 -23 -6 c-27 -8
-24 -29 4 -29 10 0 22 -4 27 -10 4 -7 10 -6 15 1 14 21 37 21 58 2 12 -11 36
-20 53 -20 33 -1 48 -12 32 -23 -6 -3 -7 -13 -4 -21 4 -10 -2 -17 -16 -21 -24
-6 -26 -18 -8 -56 15 -33 27 -35 27 -3 0 30 27 41 50 21 22 -20 32 -19 80 6
45 23 62 19 38 -8 -9 -10 -24 -37 -34 -60 -12 -27 -25 -43 -36 -43 -14 0 -16
-5 -9 -22 6 -16 1 -45 -18 -98 l-26 -75 -55 0 c-56 0 -90 18 -90 50 0 8 -15
17 -37 21 -21 4 -44 15 -50 24 -7 10 -26 23 -43 28 -26 9 -32 8 -45 -10 -8
-12 -17 -19 -21 -16 -3 4 5 19 19 34 l26 27 -24 13 c-13 7 -36 15 -52 18 -36
8 -53 45 -43 91 10 46 -18 104 -60 121 -16 7 -30 17 -30 22 0 5 -16 26 -35 46
-19 21 -33 41 -30 46 12 19 46 17 72 -6 15 -13 37 -27 48 -30 11 -4 26 -15 33
-25 14 -20 42 -26 42 -9 0 6 -4 10 -10 10 -5 0 -10 8 -10 18 0 26 -20 42 -51
42 -15 0 -30 4 -34 9 -9 16 28 32 59 26 16 -3 35 -5 42 -5z m-1341 -19 c7 -12
-12 -24 -25 -16 -11 7 -4 25 10 25 5 0 11 -4 15 -9z m-602 -47 c34 -18 47 -31
47 -51 0 -22 -25 -14 -55 17 -16 17 -34 30 -41 30 -20 0 -27 19 -13 36 11 14
13 14 21 0 5 -9 23 -23 41 -32z m772 26 c3 -5 1 -10 -4 -10 -6 0 -11 5 -11 10
0 6 2 10 4 10 3 0 8 -4 11 -10z m1435 -10 c-8 -6 -11 -10 -5 -10 5 0 4 -5 -2
-11 -9 -9 -19 -7 -40 7 l-28 19 40 5 c45 6 56 3 35 -10z m108 1 c2 -7 -2 -12
-9 -10 -27 3 -40 -1 -34 -11 3 -5 -1 -10 -9 -10 -22 0 -20 9 7 31 24 20 38 20
45 0z m62 1 c0 -13 -39 -32 -45 -22 -3 6 1 10 9 10 9 0 16 5 16 10 0 6 5 10
10 10 6 0 10 -3 10 -8z m-1685 -22 c-3 -5 -10 -10 -16 -10 -5 0 -9 5 -9 10 0
6 7 10 16 10 8 0 12 -4 9 -10z m1775 -5 c0 -25 -22 -33 -41 -17 -26 23 -24 29
11 28 16 -1 30 -6 30 -11z m-3195 -11 c-12 -9 -13 -13 -3 -17 9 -3 6 -7 -7
-12 -11 -5 -30 -17 -41 -27 -21 -19 -22 -19 -26 6 -8 39 15 64 58 63 30 -1 33
-3 19 -13z m275 12 c0 -2 -11 -11 -25 -20 -14 -9 -25 -13 -25 -8 0 5 10 14 23
20 27 13 27 13 27 8z m230 -15 c12 -23 2 -104 -15 -128 -10 -14 -17 -15 -37
-6 -18 8 -28 8 -43 -3 -23 -17 -20 -20 32 -27 26 -3 52 0 68 9 28 14 85 19 85
8 0 -12 -51 -54 -66 -54 -25 0 -108 -47 -122 -69 -19 -32 -57 -27 -76 10 -31
62 -31 94 1 141 16 24 32 51 36 60 5 15 101 78 119 78 4 0 12 -9 18 -19z
m2760 -1 c0 -5 -7 -10 -16 -10 -8 0 -12 5 -9 10 3 6 10 10 16 10 5 0 9 -4 9
-10z m-160 -4 c0 -3 -4 -8 -10 -11 -5 -3 -10 -1 -10 4 0 6 5 11 10 11 6 0 10
-2 10 -4z m-90 -14 c0 -13 -12 -22 -22 -16 -10 6 -1 24 13 24 5 0 9 -4 9 -8z
m-2676 -24 c-34 -41 -54 -59 -54 -49 0 10 58 71 67 71 3 0 -2 -10 -13 -22z
m1076 8 c0 -8 -7 -16 -15 -20 -17 -6 -18 -4 -9 18 8 20 24 21 24 2z m-673 -30
c4 -3 0 -13 -8 -21 -21 -21 -102 -7 -107 19 -4 17 2 18 52 14 31 -3 59 -8 63
-12z m1744 3 c27 -14 99 -86 99 -99 0 -5 5 -10 10 -10 15 0 12 -26 -5 -40 -12
-10 -18 -10 -30 0 -9 7 -25 10 -41 6 -22 -6 -25 -4 -19 14 4 13 1 22 -9 26
-20 8 -42 43 -50 82 -8 35 6 42 45 21z m617 -22 c11 -23 16 -26 28 -16 21 17
30 3 10 -16 -9 -9 -16 -21 -16 -26 0 -5 -5 -9 -11 -9 -6 0 -9 6 -6 14 8 21 -3
27 -26 14 -17 -9 -19 -8 -14 6 5 12 -1 19 -18 26 -29 11 -33 27 -7 33 31 9 47
2 60 -26z m122 18 c0 -8 -7 -15 -15 -15 -16 0 -20 12 -8 23 11 12 23 8 23 -8z
m-3336 -20 c-4 -8 -9 -15 -13 -15 -4 0 -16 -17 -26 -37 -13 -28 -20 -33 -22
-21 -3 10 8 33 24 53 29 36 47 46 37 20z m4749 -30 c-3 -9 -8 -14 -10 -11 -3
3 -2 9 2 15 9 16 15 13 8 -4z m-2033 -15 c0 -5 -4 -10 -10 -10 -5 0 -10 5 -10
10 0 6 5 10 10 10 6 0 10 -4 10 -10z m-2340 -17 c0 -14 -19 -38 -25 -32 -8 8
5 39 16 39 5 0 9 -3 9 -7z m1879 -17 c7 -8 15 -30 18 -50 5 -34 4 -36 -23 -36
-56 0 -77 39 -43 77 26 27 32 28 48 9z m-259 -51 c0 -8 -4 -15 -10 -15 -5 0
-10 7 -10 15 0 8 5 15 10 15 6 0 10 -7 10 -15z m-2115 -5 c3 -5 19 -10 36 -10
21 0 29 -5 29 -18 0 -10 -5 -23 -11 -29 -12 -12 -25 -61 -39 -143 -19 -111
-35 -170 -45 -167 -5 2 -19 19 -29 37 -19 32 -19 34 -2 64 10 17 22 41 27 53
7 20 6 21 -27 16 -29 -5 -34 -3 -34 14 0 17 32 119 55 176 8 19 30 23 40 7z
m792 -28 c42 11 63 5 63 -20 0 -17 -37 -60 -46 -54 -11 7 -34 0 -49 -14 -13
-14 -14 -19 -3 -25 9 -6 7 -9 -8 -9 -12 0 -27 7 -34 15 -9 11 -16 12 -25 5
-30 -25 -58 31 -29 60 21 21 79 48 87 40 5 -4 25 -4 44 2z m123 -18 c0 -10
-42 -45 -48 -40 -3 4 3 12 13 20 10 7 15 18 11 24 -5 8 -2 10 8 6 9 -3 16 -8
16 -10z m64 -40 c26 -10 18 -24 -14 -24 -29 0 -38 9 -23 23 8 9 17 9 37 1z
m291 -15 c10 -15 4 -18 -27 -12 -15 3 -25 9 -22 14 7 12 41 11 49 -2z m-395
-29 c-11 -21 -40 -28 -40 -10 0 8 27 25 48 29 1 1 -2 -8 -8 -19z m-764 -25 c4
-8 13 -15 21 -15 8 0 20 -13 26 -29 6 -16 21 -34 34 -40 13 -6 23 -15 23 -20
0 -5 9 -11 20 -14 29 -7 25 -23 -10 -35 -16 -6 -45 -23 -64 -37 -38 -29 -87
-35 -111 -15 -33 28 3 220 40 220 9 0 18 -7 21 -15z m1926 -11 c-3 -17 -8 -22
-15 -15 -11 11 -3 41 11 41 5 0 7 -12 4 -26z m669 -37 c-10 -9 -11 -8 -5 6 3
10 9 15 12 12 3 -3 0 -11 -7 -18z m554 -87 c3 -5 1 -10 -4 -10 -6 0 -11 5 -11
10 0 6 2 10 4 10 3 0 8 -4 11 -10z m-340 -50 c-3 -5 -11 -10 -16 -10 -6 0 -7
5 -4 10 3 6 11 10 16 10 6 0 7 -4 4 -10z m-2675 -48 c10 -9 33 -53 50 -97 18
-44 41 -89 51 -101 18 -19 26 -44 14 -44 -10 0 -120 75 -128 87 -4 7 -24 13
-42 13 -31 0 -35 -3 -35 -25 0 -14 9 -30 20 -37 18 -12 29 -48 14 -48 -10 0
-88 72 -93 84 -2 6 -17 23 -34 37 -27 23 -29 29 -18 43 7 9 22 16 33 16 10 0
38 20 60 45 45 49 76 57 108 27z m180 -238 c0 -8 -4 -14 -10 -14 -5 0 -10 9
-10 21 0 11 5 17 10 14 6 -3 10 -13 10 -21z m4207 -26 c-3 -8 -6 -5 -6 6 -1
11 2 17 5 13 3 -3 4 -12 1 -19z m-3987 -82 c0 -54 -24 -73 -47 -37 -9 15 -8
23 3 40 20 29 44 27 44 -3z m70 -4 c0 -14 -11 -21 -26 -15 -8 3 -11 9 -8 14 7
11 34 12 34 1z m4124 -111 c2 -22 7 -44 11 -50 10 -17 -12 -13 -30 5 -11 11
-13 20 -6 28 7 8 5 30 -4 67 -19 69 -18 72 6 27 10 -21 21 -56 23 -77z m-3976
68 c28 -11 28 -22 -2 -54 -18 -20 -30 -24 -49 -20 -17 5 -24 12 -20 21 3 8 0
14 -5 14 -6 0 -14 9 -17 20 -3 11 -14 21 -23 21 -9 1 -3 5 13 9 30 7 62 4 103
-11z m2147 -49 c3 -5 -1 -10 -10 -10 -9 0 -13 5 -10 10 3 6 8 10 10 10 2 0 7
-4 10 -10z m-40 -20 c3 -5 -1 -10 -9 -10 -9 0 -16 5 -16 10 0 6 4 10 9 10 6 0
13 -4 16 -10z m1925 -55 c7 -8 10 -24 7 -35 -3 -11 -2 -18 2 -15 4 2 7 -10 6
-28 -2 -36 -24 -87 -37 -87 -14 0 -23 33 -10 38 21 7 13 31 -8 25 -11 -3 -20
0 -20 6 0 6 5 11 10 11 6 0 10 12 10 28 0 35 10 72 20 72 4 0 13 -7 20 -15z
m-3463 -87 c26 -24 29 -38 9 -38 -22 0 -60 35 -52 48 10 17 16 15 43 -10z
m1523 2 c0 -5 -5 -10 -11 -10 -5 0 -7 5 -4 10 3 6 8 10 11 10 2 0 4 -4 4 -10z
m1730 -36 c0 -8 5 -14 10 -14 28 0 -15 -66 -58 -89 -16 -8 -21 -7 -26 4 -6 15
-36 10 -36 -6 0 -10 -175 -189 -184 -189 -3 0 -6 5 -6 10 0 9 48 61 240 261
44 46 60 52 60 23z m-1729 -6 c-8 -23 -41 -38 -41 -19 0 8 38 41 47 41 1 0 -1
-10 -6 -22z m-71 4 c0 -4 -5 -13 -12 -20 -7 -7 -16 -12 -20 -12 -13 0 -9 28 5
33 19 8 27 8 27 -1z m1650 -63 c0 -5 -6 -9 -12 -9 -7 0 -25 -15 -40 -34 -15
-18 -44 -43 -65 -56 -33 -19 -29 -13 31 48 63 64 86 78 86 51z m398 -47 c2
-12 8 -22 13 -22 15 0 10 -16 -11 -41 -11 -13 -20 -19 -19 -14 4 27 -2 46 -12
40 -6 -4 -8 -13 -5 -21 6 -16 -39 -42 -51 -31 -3 4 6 32 21 63 29 58 58 71 64
26z m135 -59 c13 -27 34 -76 47 -111 12 -34 27 -65 31 -68 5 -3 9 -24 9 -47
l-1 -42 -17 31 c-9 17 -23 29 -29 27 -20 -7 -26 24 -10 48 14 20 14 26 -4 73
-11 28 -29 63 -39 78 -18 25 -27 58 -15 58 2 0 15 -21 28 -47z m-392 3 c-7 -8
-32 -25 -56 -36 -25 -12 -68 -45 -98 -73 -92 -89 -130 -121 -179 -150 -60 -35
-63 -34 -27 5 16 18 29 37 29 43 0 12 65 65 80 65 22 0 60 33 60 51 0 11 10
23 23 28 12 5 40 24 60 42 42 38 97 61 111 48 5 -5 4 -14 -3 -23z m337 -83 c6
-16 14 -38 17 -51 6 -21 5 -22 -14 -10 -12 7 -21 21 -21 30 0 10 -4 18 -10 18
-5 0 -10 -11 -10 -24 0 -14 -5 -28 -12 -32 -8 -5 -2 -12 17 -20 28 -11 28 -13
10 -20 -11 -4 -26 -16 -33 -26 -7 -10 -17 -16 -22 -13 -5 3 -18 -5 -30 -17
-20 -21 -22 -22 -31 -6 -7 13 -17 16 -38 12 -28 -6 -58 15 -34 23 16 6 98 86
99 98 1 6 2 15 3 20 1 6 5 4 10 -3 6 -10 15 -6 37 17 36 38 49 39 62 4z m928
1 c11 -8 23 -11 27 -8 8 8 47 -56 47 -77 0 -17 -88 -96 -102 -91 -5 1 -8 -3
-8 -9 0 -6 -6 -9 -14 -6 -8 3 -17 1 -19 -6 -2 -7 -12 -2 -25 13 -16 20 -19 35
-16 80 8 103 50 142 110 104z m-1313 -18 c6 -16 -13 -26 -46 -26 -21 0 -21 1
3 20 30 24 36 24 43 6z m-383 -51 c-18 -19 -36 -32 -39 -29 -6 5 57 64 68 64
3 0 -10 -16 -29 -35z m-2019 15 c31 -17 22 -30 -20 -30 -24 0 -48 8 -62 20
l-24 19 43 1 c24 0 52 -5 63 -10z m2319 -20 c-9 -17 -8 -20 7 -20 21 -1 -28
-47 -117 -110 -30 -22 -73 -53 -96 -69 -22 -16 -58 -32 -80 -35 -28 -5 -33 -4
-19 3 11 5 38 28 60 51 22 23 63 52 92 65 29 13 65 35 80 49 15 14 31 26 35
26 5 0 8 8 8 18 0 19 18 42 32 42 5 0 4 -9 -2 -20z m-395 -80 c-10 -11 -25
-20 -33 -20 -12 0 -12 4 3 20 10 11 25 20 33 20 12 0 12 -4 -3 -20z m-185 -64
c0 -3 -4 -8 -10 -11 -5 -3 -10 -1 -10 4 0 6 5 11 10 11 6 0 10 -2 10 -4z m722
-8 c-7 -7 -27 -17 -44 -23 -24 -7 -33 -16 -33 -32 0 -11 -4 -25 -8 -29 -4 -5
-5 -1 -1 9 9 26 -13 21 -31 -7 -16 -24 -62 -46 -94 -46 -22 1 28 39 50 40 9 0
16 7 15 17 -1 10 20 28 59 49 62 33 110 45 87 22z m161 5 c-7 -2 -19 -2 -25 0
-7 3 -2 5 12 5 14 0 19 -2 13 -5z m344 -15 c-3 -8 -6 -5 -6 6 -1 11 2 17 5 13
3 -3 4 -12 1 -19z m-5217 -7 c0 -5 -5 -22 -12 -38 -13 -32 -11 -27 -25 -78 -6
-22 -11 -52 -11 -66 0 -14 -8 -52 -17 -85 -10 -32 -18 -62 -17 -65 1 -4 -3
-22 -9 -40 -6 -19 -13 -47 -16 -63 -2 -17 -13 -50 -23 -75 -10 -25 -21 -66
-25 -91 -3 -25 -20 -85 -37 -135 -17 -49 -38 -122 -48 -162 -10 -39 -21 -76
-25 -82 -3 -6 -8 -28 -11 -49 -2 -20 -6 -50 -8 -67 -3 -16 -8 -55 -11 -85 -3
-30 -11 -58 -18 -62 -7 -4 -12 -11 -13 -15 -3 -41 -58 -170 -85 -198 -5 -5 -9
-17 -9 -26 0 -9 -7 -20 -16 -23 -13 -5 -14 -3 -7 6 6 7 13 29 16 48 12 73 29
148 53 223 13 43 24 87 24 98 0 11 7 33 15 48 8 16 16 39 19 52 2 13 9 37 15
52 6 16 15 63 20 105 12 94 15 111 46 232 14 52 27 106 31 120 3 14 12 39 20
57 8 17 34 89 59 160 25 70 49 137 54 148 5 11 19 53 31 93 11 39 25 72 30 72
6 0 10 -4 10 -9z m5227 -109 c9 -38 -24 -24 -49 20 -21 37 -21 38 -3 58 18 20
18 20 33 -17 7 -21 16 -49 19 -61z m-167 63 c0 -8 -19 -24 -42 -36 -24 -12
-41 -19 -38 -15 55 67 80 83 80 51z m-2867 -16 c75 -38 87 -60 51 -96 -9 -10
-15 -9 -24 3 -7 8 -15 12 -18 10 -5 -6 -57 56 -73 87 -13 24 11 23 64 -4z
m1050 2 c15 -15 4 -22 -42 -28 -50 -7 -142 23 -120 39 17 12 149 2 162 -11z
m139 -27 c30 10 178 16 178 7 0 -34 -186 -40 -217 -7 -17 18 -17 18 4 7 12 -6
28 -9 35 -7z m2938 -31 c7 -16 15 -71 18 -123 4 -78 2 -98 -11 -108 -23 -19
-36 11 -37 89 -1 35 -3 82 -4 104 -3 69 11 85 34 38z m-4812 -75 c-2 -6 -10
-13 -16 -14 -7 -1 -8 0 -2 3 5 2 8 9 4 14 -3 5 0 9 6 9 7 0 10 -5 8 -12z
m3766 -4 c3 -9 6 -37 6 -63 0 -41 4 -50 30 -69 17 -13 30 -31 30 -42 0 -16
-11 -12 -70 27 -38 25 -70 49 -70 54 0 4 8 14 18 21 11 7 22 30 26 51 7 39 20
48 30 21z m-774 -3 c0 -9 -24 -21 -42 -21 -6 0 -6 6 2 15 14 16 40 20 40 6z
m-2687 -38 c15 -9 6 -49 -15 -63 -37 -24 -66 -19 -78 11 -16 38 12 70 55 62
17 -3 33 -7 38 -10z m-406 -24 c3 -11 9 -19 12 -19 4 0 8 -48 9 -107 2 -121 3
-145 10 -138 2 2 16 -2 31 -9 14 -7 31 -11 38 -9 15 5 108 -85 116 -112 6 -22
18 -92 17 -100 0 -3 18 -24 41 -47 22 -24 48 -54 57 -68 9 -14 25 -31 34 -38
10 -7 25 -30 34 -50 18 -42 27 -139 14 -147 -5 -3 -6 -13 -3 -23 3 -9 -9 0
-28 20 -53 57 -79 95 -79 112 0 9 -4 16 -10 16 -5 0 -10 6 -10 13 0 12 -119
163 -139 177 -8 6 -24 40 -25 55 -1 5 -14 16 -29 23 -22 11 -31 11 -42 2 -8
-7 -12 -16 -9 -21 3 -5 1 -9 -4 -9 -17 0 -61 -99 -91 -204 -31 -105 -36 -200
-14 -228 15 -19 23 -58 12 -58 -5 0 -9 -8 -9 -18 0 -10 -27 -43 -59 -74 -56
-52 -60 -58 -76 -134 -17 -79 -41 -134 -58 -134 -5 0 -8 -28 -7 -62 3 -99 2
-106 -35 -147 -19 -21 -46 -64 -60 -95 -14 -31 -39 -70 -55 -86 -27 -26 -33
-28 -51 -17 -45 28 -37 101 25 227 42 85 75 140 103 168 7 8 11 18 8 23 -4 5
-2 9 2 9 5 0 9 60 9 133 -1 72 2 144 7 159 4 17 3 31 -5 40 -15 15 -16 21 -20
71 -1 20 -6 33 -11 30 -6 -4 -7 5 -2 23 4 16 7 37 7 47 0 9 3 15 7 13 11 -7
124 115 126 135 1 10 7 24 13 32 7 8 12 28 12 43 -1 35 8 92 16 105 3 6 13 8
21 5 18 -7 70 46 89 91 8 18 13 35 12 37 -2 2 4 12 13 22 18 21 31 74 18 74
-5 0 -9 6 -9 14 0 7 -12 25 -26 40 -15 14 -23 26 -19 26 5 0 1 8 -7 18 -27 29
-42 129 -24 154 23 31 95 29 103 -3z m4536 -43 c-2 -27 -6 -52 -11 -55 -5 -3
-11 -14 -15 -23 -8 -22 -21 -23 -41 -2 -19 18 -20 51 -5 91 12 33 27 44 54 41
17 -3 20 -10 18 -52z m184 0 c20 1 21 -1 11 -20 -6 -11 -17 -26 -24 -33 -17
-17 -36 6 -30 38 3 13 5 26 5 29 1 3 5 0 9 -5 4 -6 17 -10 29 -9z m-5877 -21
c10 -12 8 -16 -11 -24 -16 -6 -25 -5 -28 2 -2 6 1 13 8 15 6 2 9 8 5 13 -9 15
13 10 26 -6z m560 -22 c0 -9 3 -13 7 -9 12 11 30 -33 25 -62 -6 -46 -34 -74
-64 -67 -21 5 -27 14 -32 51 -6 47 8 84 32 84 7 0 10 5 7 10 -3 6 1 10 9 10 9
0 16 -7 16 -17z m-1136 -93 c-4 -52 -62 -154 -79 -140 -6 5 -14 7 -18 4 -11
-11 -26 33 -28 82 -3 62 24 114 58 114 13 0 23 4 23 10 0 5 11 1 24 -11 18
-16 23 -28 20 -59z m5636 35 c6 -8 9 -19 5 -25 -9 -14 -45 6 -45 25 0 19 24
19 40 0z m50 -95 c59 -48 90 -79 90 -89 0 -13 -29 -3 -52 17 -14 12 -18 12
-18 2 0 -10 -5 -9 -17 3 -10 9 -31 28 -48 43 -29 25 -29 26 -11 40 11 7 21 13
23 11 1 -1 16 -13 33 -27z m-4333 -102 c7 -6 13 -17 13 -24 0 -8 7 -14 15 -14
17 0 20 -16 5 -25 -8 -5 -8 -11 0 -20 9 -11 2 -23 -30 -55 -34 -34 -47 -41
-73 -38 l-32 3 -3 70 c-2 62 0 74 20 98 24 27 56 29 85 5z m4368 -50 c16 -51
25 -63 47 -69 39 -10 98 -58 98 -80 0 -23 -13 -24 -30 -4 -7 8 -20 15 -30 15
-10 0 -23 7 -30 15 -7 8 -20 15 -30 15 -21 0 -44 25 -35 39 3 6 -1 34 -10 63
-17 58 -18 68 -7 68 4 0 16 -28 27 -62z m555 17 c14 -8 21 -14 16 -15 -5 0 -1
-9 8 -19 22 -24 28 -110 13 -172 -14 -58 -39 -119 -49 -119 -4 0 -8 -9 -8 -19
0 -11 -4 -22 -10 -26 -5 -3 -7 -12 -4 -19 14 -36 -64 -215 -87 -200 -5 3 -7
10 -4 15 4 5 2 9 -2 9 -12 0 -63 112 -65 142 -2 32 21 108 32 108 6 0 7 16 4
38 -11 65 -9 165 6 216 10 38 20 51 44 62 40 17 75 17 106 -1z m-2631 -74 c34
-114 42 -231 31 -451 -13 -253 -35 -487 -56 -585 -9 -38 -24 -122 -34 -185
-11 -63 -24 -135 -30 -160 -6 -25 -13 -62 -15 -83 -3 -21 -8 -44 -12 -50 -4
-7 -9 -23 -10 -37 -8 -78 -16 -119 -22 -116 -4 3 0 54 8 115 8 61 11 114 7
118 -4 4 -18 -6 -31 -22 -13 -17 -25 -28 -26 -25 -6 19 -4 113 2 152 5 26 11
83 14 125 6 76 14 132 54 393 25 160 28 185 41 360 6 80 20 200 30 268 11 67
20 145 20 172 0 60 12 65 29 11z m-2746 -30 c-3 -14 -10 -27 -15 -29 -4 -2 -8
-10 -8 -18 0 -8 -10 -14 -26 -14 -23 0 -25 4 -23 33 4 43 24 65 54 59 21 -4
24 -8 18 -31z m4906 -120 c-8 -2 -17 -9 -21 -15 -4 -6 -10 -4 -14 8 -9 23 15
39 34 23 12 -9 12 -12 1 -16z m802 -48 c1 -53 5 -93 14 -138 3 -16 8 -118 10
-225 5 -254 3 -259 -110 -217 -22 8 -55 30 -73 49 -31 30 -33 37 -28 78 4 33
14 52 35 70 20 17 31 38 36 67 4 23 12 44 20 47 7 2 16 18 20 35 3 17 17 40
30 53 19 18 21 26 12 37 -9 12 -9 13 1 7 8 -5 12 -1 12 13 0 11 -4 23 -10 26
-5 3 -10 -2 -10 -11 0 -31 -13 -6 -14 28 -1 18 -7 43 -14 55 -15 27 -6 52 22
63 40 16 46 12 47 -37z m-3190 -24 c32 -58 49 -112 40 -123 -16 -19 -28 -97
-20 -128 5 -21 0 -34 -24 -63 l-30 -37 -12 23 c-23 45 -26 85 -11 130 9 24 16
54 16 65 0 12 7 27 15 34 12 10 13 16 4 26 -8 9 -8 14 -1 14 7 0 8 11 1 32 -5
18 -9 37 -9 41 0 13 22 3 31 -14z m2417 -4 c25 -21 31 -22 43 -10 18 18 29 10
53 -38 24 -46 15 -57 -24 -28 -27 20 -30 20 -31 4 -1 -10 -1 -24 0 -30 4 -27
-16 -12 -29 22 -8 19 -20 35 -27 35 -7 0 -18 12 -23 26 -20 51 -8 58 38 19z
m-4508 -56 c0 -6 4 -8 8 -5 11 6 31 -30 36 -64 8 -58 -42 -81 -81 -37 -29 31
-34 65 -18 104 13 30 17 33 35 23 11 -6 20 -15 20 -21z m5138 -2 c6 -5 12 -6
12 -1 0 5 5 1 11 -9 5 -9 7 -22 4 -27 -3 -5 -1 -19 6 -31 8 -15 8 -19 0 -15
-6 4 -11 1 -11 -6 0 -9 -3 -9 -10 2 -9 13 -11 13 -20 0 -5 -8 -10 -12 -10 -7
0 22 -40 -38 -46 -70 -9 -52 -23 -77 -24 -41 0 17 -7 29 -19 33 -22 7 -35 32
-21 40 6 4 6 14 -1 26 -8 17 -5 27 23 59 18 21 39 39 46 39 6 1 12 8 12 16 0
15 23 11 48 -8z m-6605 -14 c-10 -3 -10 -8 1 -18 13 -13 9 -69 -10 -127 -6
-21 -20 -23 -27 -5 -16 41 11 158 35 156 10 0 10 -2 1 -6z m2839 -34 c2 -7 -9
-26 -24 -43 -56 -63 -158 -195 -158 -205 0 -18 -50 -61 -78 -66 -15 -4 -34
-10 -42 -14 -14 -7 -48 -60 -70 -108 -5 -13 -15 -23 -23 -23 -7 0 -20 -8 -28
-17 -9 -10 -38 -38 -65 -63 -78 -73 -124 -128 -124 -150 0 -11 -23 -50 -51
-86 -55 -72 -70 -120 -47 -153 22 -31 12 -71 -17 -71 -36 0 -55 11 -55 31 0
38 -84 18 -129 -30 -28 -30 -215 -131 -243 -131 -8 0 -21 7 -28 15 -7 8 -8 15
-3 15 6 0 18 18 28 39 15 33 30 46 94 78 60 30 100 61 186 146 95 93 108 110
94 120 -24 18 -41 56 -34 77 3 11 29 38 58 60 31 25 65 65 85 102 21 36 47 67
65 77 17 9 42 27 55 41 23 24 24 29 19 128 -3 56 -2 102 1 102 10 0 55 -50 67
-74 25 -49 105 -54 120 -7 3 12 11 21 16 21 5 0 9 6 9 13 0 7 21 35 48 62 38
41 61 54 122 75 41 13 83 25 93 26 10 1 23 6 30 13 14 14 24 14 29 0z m3276
-47 c6 -18 -15 -14 -22 4 -4 10 -1 14 6 12 6 -2 14 -10 16 -16z m-111 -18 c-9
-9 -28 6 -21 18 4 6 10 6 17 -1 6 -6 8 -13 4 -17z m-6052 -24 c3 -5 1 -10 -4
-10 -6 0 -11 5 -11 10 0 6 2 10 4 10 3 0 8 -4 11 -10z m6173 -32 c7 -7 12 -16
12 -20 0 -15 -15 -8 -28 12 -13 22 -3 27 16 8z m-5928 -118 c0 -5 -2 -10 -4
-10 -3 0 -8 5 -11 10 -3 6 -1 10 4 10 6 0 11 -4 11 -10z m-4 -68 c-7 -53 -8
-54 -30 -46 -10 4 -16 18 -16 40 0 25 4 32 14 28 11 -4 13 0 9 15 -4 17 -2 20
12 15 14 -6 16 -15 11 -52z m952 -25 c14 -16 4 -59 -33 -154 -30 -76 -44 -90
-76 -73 -23 13 -25 48 -5 114 29 96 84 150 114 113z m-508 -52 c0 -8 -7 -15
-15 -15 -9 0 -12 6 -9 15 4 8 10 15 15 15 5 0 9 -7 9 -15z m5620 -27 c0 -18
-2 -20 -9 -8 -6 8 -7 18 -5 22 9 14 14 9 14 -14z m765 -77 c10 -17 -11 -21
-31 -6 -18 14 -18 14 3 15 12 0 24 -4 28 -9z m-4455 -23 c0 -5 4 -7 9 -3 12 7
31 -26 31 -54 0 -29 -37 -63 -60 -56 -10 3 -28 0 -38 -6 -19 -12 -19 -15 -4
-58 8 -25 19 -50 23 -56 15 -16 11 -85 -5 -85 -44 0 -91 123 -55 145 6 4 9 19
8 33 -4 39 11 132 21 129 4 -1 8 2 8 8 1 22 62 26 62 3z m600 -62 c0 -31 -22
-48 -53 -41 -22 6 -24 9 -14 34 8 21 17 28 39 29 23 1 28 -4 28 -22z m1000
-38 c0 -16 -3 -19 -11 -11 -6 6 -8 16 -5 22 11 17 16 13 16 -11z m2104 -82
c29 -97 14 -117 -19 -26 -28 77 -28 80 -12 80 10 0 21 -19 31 -54z m-263 13
c23 -23 19 -52 -6 -43 -9 4 -14 13 -11 20 3 7 1 16 -4 19 -10 6 -14 25 -5 25
3 0 14 -9 26 -21z m246 -145 c-9 -9 -28 6 -21 18 4 6 10 6 17 -1 6 -6 8 -13 4
-17z m-2877 -39 c34 -17 37 -31 15 -62 -16 -22 -86 -74 -118 -86 -25 -10 -63
8 -70 33 -4 17 6 34 48 76 57 58 77 64 125 39z m2680 -15 c0 -5 -4 -10 -10
-10 -5 0 -10 5 -10 10 0 6 5 10 10 10 6 0 10 -4 10 -10z m-4440 -78 c0 -30
-10 -82 -25 -123 -13 -40 -22 -75 -20 -79 6 -9 -49 -70 -63 -70 -15 0 -30 23
-36 54 -5 29 9 70 34 98 17 18 32 57 50 125 13 51 39 81 51 61 5 -7 9 -37 9
-66z m4675 34 c6 -20 15 -40 21 -44 16 -10 25 -54 11 -50 -12 4 -48 72 -62
117 -5 17 -4 22 6 19 8 -3 19 -21 24 -42z m-5137 0 c5 -25 -27 -59 -44 -45
-10 8 -9 16 4 39 18 32 35 34 40 6z m4896 -12 c23 -9 20 -23 -4 -17 -11 3 -20
9 -20 14 0 11 3 11 24 3z m-2990 -20 c28 -28 15 -77 -41 -151 -29 -40 -46 -41
-79 -8 -21 21 -25 33 -21 62 6 40 27 65 78 92 44 24 45 24 63 5z m-801 -45
c-3 -10 0 -19 6 -19 5 0 8 -7 5 -15 -7 -17 -44 -21 -44 -4 0 6 8 8 18 5 14 -5
14 -4 -2 9 -25 19 -29 43 -8 54 20 11 32 -3 25 -30z m-938 -31 c-3 -24 -12
-81 -21 -128 -20 -98 -13 -220 11 -220 8 0 18 -8 23 -17 12 -21 -12 -57 -90
-134 -32 -31 -58 -59 -58 -62 0 -9 -62 -99 -81 -118 -9 -9 -28 -19 -43 -23
-28 -7 -50 -45 -40 -71 10 -25 -5 -64 -32 -81 -41 -27 -45 -9 -26 107 15 93
22 111 51 144 18 21 37 48 43 61 12 26 37 38 91 42 10 1 29 14 42 28 31 33 33
93 7 156 -20 46 -35 182 -24 210 4 9 22 32 40 52 17 19 32 41 32 47 0 20 33
48 57 48 20 1 21 -3 18 -41z m2861 -23 c14 -13 13 -15 -4 -15 -11 0 -22 7 -26
15 -3 8 -1 15 5 15 6 0 17 -7 25 -15z m2104 -22 c0 -29 -12 -24 -17 7 -2 11 2
20 7 20 6 0 10 -12 10 -27z m-6082 -36 c5 -72 -68 -217 -109 -217 -12 0 -52
129 -53 171 -1 61 55 101 134 96 23 -2 25 -7 28 -50z m6224 21 c-9 -9 -12 -7
-12 12 0 19 3 21 12 12 9 -9 9 -15 0 -24z m-4152 8 c0 -3 -4 -8 -10 -11 -5 -3
-10 -1 -10 4 0 6 5 11 10 11 6 0 10 -2 10 -4z m6 -66 c7 0 17 -12 20 -27 6
-22 1 -32 -25 -55 -31 -28 -34 -28 -47 -11 -22 30 -18 89 9 108 20 14 22 14
25 0 2 -8 10 -15 18 -15z m-2325 -77 c-13 -44 -27 -70 -36 -62 -7 8 14 108 29
134 10 19 11 19 14 -7 2 -14 -2 -44 -7 -65z m1079 72 c-7 -9 -15 -13 -19 -10
-3 3 1 10 9 15 21 14 24 12 10 -5z m-3 -31 c-3 -3 -12 -4 -19 -1 -8 3 -5 6 6
6 11 1 17 -2 13 -5z m-17 -18 c0 -2 -9 -26 -21 -53 -12 -26 -27 -69 -35 -94
-8 -26 -22 -53 -31 -60 -15 -13 -16 -11 -9 11 4 14 8 33 9 43 1 9 4 17 8 17 4
0 6 8 5 18 -3 18 0 25 34 85 18 31 40 49 40 33z m824 -12 c9 -25 7 -41 -11
-83 -19 -45 -57 -70 -67 -45 -16 41 4 99 44 131 20 17 27 16 34 -3z m4576 -34
c0 -5 -5 -10 -11 -10 -5 0 -7 5 -4 10 3 6 8 10 11 10 2 0 4 -4 4 -10z m-2165
-26 c29 -19 33 -44 8 -44 -25 1 -53 24 -53 44 0 20 14 20 45 0z m-4328 -46
c-3 -8 -6 -5 -6 6 -1 11 2 17 5 13 3 -3 4 -12 1 -19z m1549 -23 c7 -29 -24
-117 -40 -112 -6 2 -15 12 -20 24 -5 11 -22 25 -38 31 -36 13 -35 21 10 54 48
35 80 36 88 3z m-1549 -58 c-6 -67 -24 -120 -38 -111 -12 7 -11 74 2 115 6 19
12 40 15 47 2 6 9 12 15 12 8 0 10 -19 6 -63z m6900 31 c-3 -8 -6 -5 -6 6 -1
11 2 17 5 13 3 -3 4 -12 1 -19z m-770 -43 c0 -8 -4 -15 -7 -15 -4 0 -13 7 -20
15 -10 12 -9 15 7 15 11 0 20 -7 20 -15z m-1767 -5 c0 -5 -4 -10 -9 -10 -6 0
-13 5 -16 10 -3 6 1 10 9 10 9 0 16 -4 16 -10z m-786 -137 c-3 -21 -11 -54
-18 -73 -7 -19 -19 -63 -26 -97 -7 -35 -23 -77 -36 -95 l-24 -32 5 64 c3 35
10 69 14 74 5 6 14 31 21 56 16 60 50 140 61 140 4 0 5 -17 3 -37z m116 -33
c6 0 10 5 10 10 0 16 17 12 24 -5 8 -22 -14 -53 -46 -64 -16 -6 -35 -25 -47
-48 l-20 -38 -1 30 c0 17 9 58 20 90 33 94 32 93 42 58 5 -18 13 -33 18 -33z
m655 11 c-10 -16 -25 -3 -25 22 0 20 1 20 16 5 9 -9 13 -21 9 -27z m-2557 -13
c7 -7 12 -20 12 -29 0 -10 5 -19 10 -21 21 -7 -11 -65 -53 -99 -43 -35 -103
-68 -124 -69 -24 0 -15 50 11 61 24 11 46 47 46 75 0 18 30 75 45 86 15 11 40
9 53 -4z m2612 -28 c9 -6 15 -26 16 -55 1 -37 -2 -45 -15 -43 -9 2 -17 12 -20
23 -2 11 -8 23 -15 27 -8 5 -8 10 1 19 6 6 9 18 6 25 -6 16 5 18 27 4z m1524
-20 c19 0 19 -1 4 -17 -14 -13 -20 -14 -32 -3 -9 7 -16 20 -16 28 0 12 3 13
12 4 7 -7 21 -12 32 -12z m683 -92 c-3 -7 -5 -2 -5 12 0 14 2 19 5 13 2 -7 2
-19 0 -25z m-122 2 c4 -11 17 -32 30 -48 27 -32 95 -143 95 -156 0 -25 -74 73
-113 148 -13 27 -15 28 -21 10 -3 -11 -1 -35 4 -54 14 -48 13 -60 -5 -60 -12
0 -15 13 -15 59 0 32 -3 73 -6 90 -5 24 -3 31 9 31 9 0 19 -9 22 -20z m-2165
-41 c0 -6 -4 -7 -10 -4 -5 3 -10 11 -10 16 0 6 5 7 10 4 6 -3 10 -11 10 -16z
m2081 -72 c-8 -8 -11 1 -11 29 0 53 14 67 18 19 2 -21 -1 -42 -7 -48z m-6071
2 c0 -20 -79 -133 -88 -125 -2 3 1 19 7 37 6 18 11 49 11 70 0 26 6 41 17 48
23 13 53 -4 53 -30z m5410 8 c11 3 20 9 20 14 0 16 30 9 41 -9 8 -13 20 -17
43 -14 20 2 37 -2 44 -10 9 -12 3 -24 -32 -61 -49 -51 -56 -47 -56 29 0 32 -4
44 -15 44 -7 0 -18 -6 -22 -12 -32 -50 -91 -59 -73 -12 6 14 9 28 9 32 -3 20
3 25 11 10 6 -10 18 -14 30 -11z m-1302 -24 c33 -22 42 -33 42 -57 0 -12 -5
-16 -16 -12 -8 3 -12 2 -9 -4 3 -6 -3 -10 -14 -10 -25 0 -33 13 -37 61 -4 45
-3 45 34 22z m1592 -33 c0 -5 -4 -10 -10 -10 -5 0 -10 5 -10 10 0 6 5 10 10
10 6 0 10 -4 10 -10z m-64 -14 c5 -13 -14 -62 -20 -54 -2 1 -6 18 -9 36 -5 25
-3 32 9 32 8 0 17 -6 20 -14z m-256 -10 c0 -3 -4 -8 -10 -11 -5 -3 -10 -1 -10
4 0 6 5 11 10 11 6 0 10 -2 10 -4z m777 -2 c-3 -3 -12 -4 -19 -1 -8 3 -5 6 6
6 11 1 17 -2 13 -5z m-1987 -40 c0 -8 4 -13 8 -10 5 3 16 -10 25 -29 16 -33
37 -47 37 -25 0 6 5 10 10 10 6 0 10 -7 10 -15 0 -8 -6 -15 -12 -15 -10 0 -10
-2 0 -8 17 -11 9 -53 -12 -66 -20 -13 -36 6 -29 33 2 9 -5 25 -16 35 -23 21
-28 56 -8 56 6 0 0 8 -15 18 -31 18 -36 32 -13 32 8 0 15 -7 15 -16z m-2896
-133 c-4 -14 -13 -33 -21 -41 -12 -13 -15 -13 -23 0 -14 21 -12 67 3 90 12 21
12 21 29 -1 12 -14 16 -30 12 -48z m2876 37 c0 -19 -8 -18 -37 5 -18 13 -7 26
17 20 11 -3 20 -14 20 -25z m2040 -89 c0 -17 5 -39 10 -50 12 -22 7 -24 -23
-7 -36 18 -60 58 -37 58 6 0 15 -10 20 -22 7 -19 9 -16 9 20 1 26 5 41 11 37
6 -3 10 -20 10 -36z m-2056 -5 c11 -28 6 -39 -9 -20 -8 11 -15 23 -15 28 0 14
18 9 24 -8z m2116 -43 c0 -16 7 -36 15 -44 12 -12 12 -16 1 -20 -8 -3 -18 4
-24 16 -13 29 -14 77 -2 77 6 0 10 -13 10 -29z m-30 -76 c0 -8 6 -12 15 -9 11
5 13 -1 10 -28 -4 -29 1 -41 31 -73 33 -36 40 -57 19 -56 -6 1 -10 6 -10 12 0
6 -8 16 -17 23 -10 7 -18 17 -19 22 -1 16 -59 57 -59 42 0 -8 3 -18 8 -24 4
-5 -3 2 -15 16 -27 30 -29 40 -7 40 8 0 12 5 9 10 -10 16 2 40 20 40 8 0 15
-7 15 -15z m-56 -130 c15 -32 25 -60 23 -62 -9 -8 -87 128 -87 153 0 26 34
-22 64 -91z m146 58 c0 -35 -16 -36 -30 -2 -11 26 -11 32 1 39 16 11 29 -5 29
-37z m-78 -116 c-3 -30 -7 -35 -18 -26 -8 6 -10 16 -6 23 4 6 7 18 8 26 1 8 2
24 3 35 l2 20 8 -20 c4 -11 6 -37 3 -58z m-3290 -15 c-6 -31 -48 -98 -66 -105
-6 -3 -20 1 -30 9 -27 19 -14 76 22 101 57 39 82 37 74 -5z m3183 -12 c3 -5 1
-10 -4 -10 -6 0 -11 5 -11 10 0 6 2 10 4 10 3 0 8 -4 11 -10z"/>
<path d="M5205 5638 c-48 -34 -85 -70 -126 -121 l-39 -49 41 -46 c48 -55 89
-133 115 -217 10 -33 20 -63 24 -67 7 -9 72 168 95 257 28 110 36 183 25 225
-11 39 -11 40 -58 40 -32 -1 -57 -8 -77 -22z"/>
<path d="M2517 5514 c-13 -14 7 -34 34 -34 33 0 36 7 12 26 -19 15 -36 17 -46
8z"/>
<path d="M2440 5341 c-9 -22 -9 -34 0 -50 6 -12 12 -21 14 -21 6 0 48 82 44
85 -2 1 -13 5 -24 9 -17 5 -24 1 -34 -23z"/>
<path d="M2486 5275 c-15 -11 -17 -18 -9 -26 15 -15 55 -1 51 19 -4 21 -19 24
-42 7z"/>
<path d="M3570 5406 c-16 -16 -12 -35 8 -29 10 2 26 -5 36 -16 26 -28 35 -26
34 7 -1 23 -7 30 -34 38 -23 8 -36 8 -44 0z"/>
<path d="M3472 5338 c3 -7 13 -15 22 -16 12 -3 17 1 14 10 -3 7 -13 15 -22 16
-12 3 -17 -1 -14 -10z"/>
<path d="M3555 5310 c3 -5 8 -10 11 -10 2 0 4 5 4 10 0 6 -5 10 -11 10 -5 0
-7 -4 -4 -10z"/>
<path d="M3640 5310 c0 -12 8 -12 35 0 18 8 17 9 -7 9 -16 1 -28 -3 -28 -9z"/>
<path d="M3700 5310 c0 -5 5 -10 10 -10 6 0 10 5 10 10 0 6 -4 10 -10 10 -5 0
-10 -4 -10 -10z"/>
<path d="M3799 5284 c-5 -15 -8 -29 -5 -31 8 -8 45 21 49 39 8 30 -32 22 -44
-8z"/>
<path d="M3576 5267 c-7 -29 -3 -31 18 -8 14 16 15 19 2 24 -9 4 -16 -2 -20
-16z"/>
<path d="M3700 5261 c0 -12 8 -25 18 -28 9 -4 20 -11 23 -16 8 -11 29 -1 29
14 0 5 -5 9 -12 9 -6 0 -22 10 -35 22 l-23 21 0 -22z"/>
<path d="M3610 5221 c0 -5 -10 -12 -22 -16 -14 -4 -18 -8 -10 -12 14 -5 72 18
72 29 0 5 -9 8 -20 8 -11 0 -20 -4 -20 -9z"/>
<path d="M3670 5220 c0 -5 4 -10 9 -10 6 0 13 5 16 10 3 6 -1 10 -9 10 -9 0
-16 -4 -16 -10z"/>
<path d="M3640 5140 c-15 -28 -4 -39 17 -17 13 12 14 20 6 28 -8 8 -14 5 -23
-11z"/>
<path d="M3835 5110 c-3 -6 5 -10 19 -10 14 0 28 5 31 10 3 6 -5 10 -19 10
-14 0 -28 -4 -31 -10z"/>
<path d="M3770 5076 c0 -10 8 -16 22 -16 12 0 19 1 17 3 -2 1 -12 9 -21 16
-15 12 -18 11 -18 -3z"/>
<path d="M3869 4994 c-12 -14 -11 -16 5 -13 11 2 21 10 24 17 5 17 -13 15 -29
-4z"/>
<path d="M5516 3759 c-11 -10 -16 -22 -13 -26 7 -6 47 30 47 42 0 10 -15 3
-34 -16z"/>
<path d="M5562 5560 c0 -14 2 -19 5 -12 2 6 2 18 0 25 -3 6 -5 1 -5 -13z"/>
<path d="M1730 4948 c0 -7 5 -20 10 -28 8 -12 10 -9 10 13 0 15 -4 27 -10 27
-5 0 -10 -6 -10 -12z"/>
<path d="M2166 4830 c-2 -8 -9 -43 -15 -78 -10 -63 -7 -92 11 -92 15 0 38 66
38 108 0 42 -25 88 -34 62z"/>
<path d="M1990 4800 c0 -13 5 -20 13 -17 6 2 12 10 12 17 0 7 -6 15 -12 18 -8
2 -13 -5 -13 -18z"/>
<path d="M3156 4754 c-11 -8 -16 -14 -10 -14 13 0 39 18 34 24 -3 2 -14 -2
-24 -10z"/>
<path d="M3020 4752 c0 -7 33 -31 43 -32 20 0 0 34 -20 35 -13 1 -23 0 -23 -3z"/>
<path d="M1396 4703 c-11 -11 -6 -23 9 -23 8 0 15 4 15 9 0 13 -16 22 -24 14z"/>
<path d="M3381 4644 c0 -11 3 -14 6 -6 3 7 2 16 -1 19 -3 4 -6 -2 -5 -13z"/>
<path d="M1775 4630 c-14 -22 -43 -119 -38 -124 10 -9 43 52 43 79 0 13 6 25
14 27 12 2 12 5 1 15 -9 8 -16 9 -20 3z"/>
<path d="M3372 4595 c-14 -31 -15 -45 -3 -45 10 0 26 58 19 66 -3 2 -10 -7
-16 -21z"/>
<path d="M2700 4398 c14 -8 57 -15 95 -17 78 -2 103 -7 125 -26 23 -20 84 3
88 33 3 22 2 23 -19 12 -22 -12 -55 -11 -244 5 -63 6 -68 5 -45 -7z"/>
<path d="M2696 4310 c-10 -22 -13 -46 -9 -80 5 -47 8 -50 34 -50 18 0 34 -8
41 -20 18 -28 28 -25 28 7 0 30 38 93 57 93 22 0 43 -31 43 -64 0 -39 26 -66
64 -66 17 0 35 -9 46 -22 17 -22 19 -22 38 -5 12 11 18 26 15 38 -3 10 -1 25
4 32 14 17 10 92 -6 111 -10 12 -29 16 -70 15 -31 -1 -60 0 -66 2 -5 2 -22 -5
-37 -15 -24 -16 -29 -16 -42 -3 -8 8 -31 18 -50 21 -18 4 -39 13 -46 21 -18
22 -27 19 -44 -15z"/>
<path d="M3710 4295 c0 -8 2 -15 4 -15 2 0 6 7 10 15 3 8 1 15 -4 15 -6 0 -10
-7 -10 -15z"/>
<path d="M4296 3862 c-5 -8 62 -52 78 -52 4 0 -9 14 -27 30 -37 32 -43 35 -51
22z"/>
<path d="M3573 3793 c-24 -9 -13 -20 15 -15 16 2 46 -1 67 -7 37 -10 54 -4 55
21 0 7 -119 9 -137 1z"/>
<path d="M3930 3755 c-14 -16 -10 -18 14 -9 9 3 16 10 16 15 0 14 -16 11 -30
-6z"/>
<path d="M3725 3740 c3 -5 11 -10 16 -10 6 0 7 5 4 10 -3 6 -11 10 -16 10 -6
0 -7 -4 -4 -10z"/>
<path d="M5420 3120 c-22 -7 -21 -8 13 -9 20 -1 37 4 37 9 0 11 -14 11 -50 0z"/>
<path d="M5030 2688 c0 -8 5 -19 12 -26 20 -20 40 -14 36 11 -3 25 -48 39 -48
15z"/>
<path d="M4430 2682 c0 -14 23 -32 42 -32 26 0 22 15 -7 28 -31 14 -35 15 -35
4z"/>
<path d="M4490 2580 c0 -19 3 -21 12 -12 9 9 9 15 0 24 -9 9 -12 7 -12 -12z"/>
<path d="M4476 2511 c-9 -9 -16 -25 -16 -33 0 -9 -5 -18 -12 -20 -29 -10 8
-28 56 -28 57 0 71 -6 56 -25 -6 -7 -6 -24 0 -46 6 -18 10 -50 10 -69 1 -33 1
-34 15 -15 16 20 12 80 -6 100 -17 18 -9 35 17 35 15 0 23 4 19 11 -4 6 -14 8
-23 4 -17 -6 -82 58 -82 81 0 22 -17 24 -34 5z"/>
<path d="M4310 2465 c0 -10 10 -15 26 -15 22 0 25 2 14 15 -7 8 -19 15 -26 15
-8 0 -14 -7 -14 -15z"/>
<path d="M5086 2363 c-3 -10 -8 -23 -11 -29 -3 -6 3 -14 15 -17 11 -3 28 -19
37 -36 20 -34 31 -39 39 -16 5 12 -21 55 -66 108 -4 5 -10 0 -14 -10z"/>
<path d="M5010 2340 c0 -5 7 -10 15 -10 8 0 15 5 15 10 0 6 -7 10 -15 10 -8 0
-15 -4 -15 -10z"/>
<path d="M6043 2203 c-3 -7 -2 -16 1 -21 10 -17 -21 -33 -48 -26 -14 3 -26 10
-26 15 0 5 -4 9 -9 9 -5 0 -7 -9 -4 -21 8 -28 44 -43 87 -35 29 6 36 11 36 30
0 13 7 29 15 36 8 7 12 16 9 21 -7 13 -56 7 -61 -8z"/>
<path d="M5170 2072 c0 -26 47 -40 84 -26 13 5 14 9 5 20 -12 15 -89 20 -89 6z"/>
<path d="M5812 1960 c-6 -11 -12 -34 -12 -52 0 -18 -7 -46 -15 -62 -8 -15 -15
-46 -15 -67 0 -41 18 -59 62 -59 13 0 36 -7 52 -15 15 -8 38 -15 51 -15 31 0
50 61 41 135 -4 33 -2 64 4 75 9 17 7 20 -9 20 -10 0 -21 7 -25 15 -6 17 -36
21 -36 5 0 -5 -6 -10 -14 -10 -8 0 -22 -10 -30 -22 -20 -28 -28 -19 -30 32 -1
45 -6 49 -24 20z"/>
<path d="M4813 1921 c-27 -23 -20 -31 24 -31 30 0 34 3 31 22 -4 29 -27 33
-55 9z"/>
<path d="M6020 1910 c0 -5 5 -10 10 -10 6 0 10 5 10 10 0 6 -4 10 -10 10 -5 0
-10 -4 -10 -10z"/>
<path d="M6058 1754 c11 -19 4 -54 -9 -54 -6 0 -12 7 -15 15 -9 23 -19 18 -20
-10 -2 -19 1 -23 10 -15 7 5 15 7 19 4 3 -3 14 -3 25 0 27 9 34 50 10 65 -25
15 -31 14 -20 -5z"/>
<path d="M5285 1560 c-4 -6 -13 -9 -21 -6 -24 9 -28 -17 -5 -35 17 -14 27 -16
42 -9 22 13 25 33 5 49 -10 9 -16 9 -21 1z"/>
<path d="M5446 1514 c-3 -9 -6 -24 -6 -34 0 -26 -30 -54 -43 -41 -17 17 -37
13 -37 -8 0 -15 7 -19 35 -19 26 0 41 7 60 30 14 16 25 36 25 43 0 20 -11 45
-20 45 -4 0 -11 -7 -14 -16z"/>
<path d="M5385 1500 c3 -5 11 -10 16 -10 6 0 7 5 4 10 -3 6 -11 10 -16 10 -6
0 -7 -4 -4 -10z"/>
<path d="M6062 1498 c3 -7 13 -15 24 -17 16 -3 17 -1 5 13 -16 19 -34 21 -29
4z"/>
<path d="M5940 1470 c0 -5 5 -10 10 -10 6 0 10 5 10 10 0 6 -4 10 -10 10 -5 0
-10 -4 -10 -10z"/>
<path d="M4174 1419 c-3 -6 -1 -16 4 -21 8 -8 11 -5 9 11 -1 24 -3 25 -13 10z"/>
<path d="M6200 1402 c0 -12 19 -26 26 -19 2 2 -2 10 -11 17 -9 8 -15 8 -15 2z"/>
<path d="M5317 1251 c-6 -24 0 -31 25 -31 21 0 22 4 8 31 -14 24 -26 24 -33 0z"/>
<path d="M4231 1216 c-12 -7 -34 -11 -47 -8 -19 3 -34 -7 -74 -49 -28 -30 -53
-63 -56 -74 -3 -12 0 -50 5 -86 6 -35 9 -76 6 -89 -12 -64 -50 -195 -57 -198
-4 -2 -8 -10 -8 -18 0 -8 -6 -14 -12 -13 -7 1 -21 -1 -30 -5 -14 -6 -15 -12
-6 -32 6 -13 15 -24 19 -24 4 0 10 -12 13 -26 4 -14 18 -43 31 -65 14 -21 25
-44 25 -50 0 -6 8 -9 18 -7 14 3 69 89 88 138 3 8 14 33 24 55 10 22 21 57 24
77 3 20 15 69 26 110 43 159 68 367 45 374 -5 2 -21 -3 -34 -10z"/>
<path d="M4770 1193 c0 -16 8 -44 18 -63 11 -19 22 -48 26 -64 9 -35 24 -24
27 19 3 33 -11 65 -47 108 l-24 29 0 -29z"/>
<path d="M4490 1176 c0 -9 5 -16 10 -16 6 0 10 4 10 9 0 6 -4 13 -10 16 -5 3
-10 -1 -10 -9z"/>
<path d="M5727 1050 c3 -11 12 -20 19 -20 19 0 18 26 -2 34 -22 9 -23 8 -17
-14z"/>
<path d="M5068 984 c-5 -4 -8 -21 -8 -38 0 -21 3 -27 11 -19 6 6 9 23 7 38 -2
15 -6 23 -10 19z"/>
<path d="M5313 969 c-16 -16 -5 -39 17 -39 25 0 35 18 20 35 -15 18 -22 19
-37 4z"/>
<path d="M6290 816 c0 -16 42 -66 56 -66 8 0 14 -5 14 -11 0 -6 10 -20 23 -30
15 -13 17 -19 7 -18 -33 3 -39 -3 -45 -43 -4 -24 -12 -49 -17 -55 -7 -9 -3
-15 17 -23 15 -6 30 -8 35 -5 8 5 19 50 23 94 1 13 8 26 15 29 17 5 15 22 -3
22 -8 0 -27 13 -41 30 -15 16 -31 27 -35 24 -5 -3 -9 0 -9 6 0 6 -9 20 -20 32
-11 12 -20 18 -20 14z"/>
<path d="M5566 784 c-9 -24 -7 -54 4 -54 6 0 10 -8 10 -17 0 -12 3 -14 10 -7
7 7 8 28 4 52 -7 44 -17 53 -28 26z"/>
<path d="M6253 763 c-15 -5 -5 -33 19 -54 10 -9 18 -20 18 -26 0 -5 9 -9 20
-10 11 -1 20 4 20 10 0 24 -13 57 -20 52 -4 -2 -16 4 -26 14 -11 9 -25 16 -31
14z"/>
<path d="M6245 670 c-8 -38 0 -49 21 -28 15 15 15 18 1 38 -15 22 -15 22 -22
-10z"/>
<path d="M6436 659 c-3 -17 -6 -47 -6 -65 0 -19 -4 -34 -10 -34 -18 0 -10 -36
13 -58 33 -31 43 -28 61 18 9 22 20 40 26 40 5 0 10 7 10 16 0 10 6 14 15 10
17 -6 20 20 5 44 -11 17 -26 6 -33 -25 -4 -19 -5 -18 -14 4 -14 34 -23 14 -24
-54 -1 -31 -5 -52 -9 -46 -4 7 -5 44 -2 84 3 56 0 76 -11 85 -12 10 -15 7 -21
-19z"/>
<path d="M513 628 c-11 -13 -46 -68 -77 -123 -31 -55 -61 -107 -66 -115 -5 -8
-23 -40 -41 -70 -17 -30 -68 -108 -111 -174 -96 -144 -97 -146 -66 -146 17 0
54 32 138 121 63 67 123 133 134 148 19 27 100 84 124 87 20 3 24 10 44 62 25
65 23 104 -7 136 -13 14 -27 42 -31 61 -7 41 -13 43 -41 13z"/>
<path d="M6197 554 c-3 -4 -3 -20 0 -36 4 -22 2 -33 -10 -40 -18 -9 -24 -48
-8 -48 5 0 15 13 22 29 7 16 18 27 26 24 9 -4 10 3 3 28 -11 36 -23 53 -33 43z"/>
<path d="M6327 513 c-10 -9 -9 -41 2 -47 11 -7 21 28 12 43 -4 6 -10 8 -14 4z"/>
<path d="M6270 500 c8 -5 20 -10 25 -10 6 0 3 5 -5 10 -8 5 -19 10 -25 10 -5
0 -3 -5 5 -10z"/>
<path d="M3711 477 c-11 -16 -15 -17 -22 -6 -7 12 -9 12 -10 -1 -3 -39 -18
-88 -40 -136 -10 -22 -19 -46 -19 -53 0 -26 45 -111 62 -117 9 -2 23 -16 32
-29 21 -32 115 -107 126 -100 5 3 12 1 15 -5 4 -6 15 -8 26 -5 12 4 19 2 17
-5 -2 -7 3 -15 11 -18 10 -3 12 0 8 11 -3 9 -1 19 4 23 6 3 9 14 6 24 -3 11 1
21 9 24 17 7 18 42 2 53 -14 8 -14 10 -16 72 l-2 38 -49 -8 c-27 -4 -59 -12
-70 -18 -28 -15 -66 -14 -80 3 -19 23 -22 79 -5 104 13 20 22 22 78 20 82 -4
100 10 92 66 -9 55 -21 66 -72 66 -24 0 -44 3 -44 8 0 17 -47 8 -59 -11z"/>
<path d="M6272 420 c-10 -22 -17 -42 -14 -45 11 -11 32 -4 32 10 0 8 5 15 10
15 6 0 10 14 10 30 0 41 -14 38 -38 -10z"/>
<path d="M6397 433 c-3 -15 -7 -37 -10 -48 -3 -11 -8 -32 -12 -48 -8 -31 9
-59 31 -50 17 6 18 35 2 51 -9 9 -7 16 6 31 11 12 16 31 14 52 -4 41 -24 49
-31 12z"/>
<path d="M6337 443 c-4 -3 -7 -16 -7 -28 0 -13 -7 -28 -15 -35 -9 -7 -13 -15
-11 -17 9 -10 56 46 56 67 0 20 -11 26 -23 13z"/>
<path d="M6430 353 c0 -22 2 -25 10 -13 13 20 13 40 0 40 -5 0 -10 -12 -10
-27z"/>
<path d="M6084 325 c-3 -8 -3 -19 1 -25 11 -18 25 -11 25 15 0 27 -17 34 -26
10z"/>
<path d="M6190 276 c0 -7 9 -16 20 -19 11 -3 20 -4 20 -3 0 1 -9 9 -20 19 -15
13 -20 14 -20 3z"/>
<path d="M6251 264 c0 -11 3 -14 6 -6 3 7 2 16 -1 19 -3 4 -6 -2 -5 -13z"/>
<path d="M6070 236 c0 -15 18 -31 26 -23 7 7 -7 37 -17 37 -5 0 -9 -6 -9 -14z"/>
<path d="M6190 197 c0 -14 7 -27 15 -31 10 -3 15 1 15 13 0 10 -7 24 -15 31
-13 11 -15 9 -15 -13z"/>
<path d="M6283 196 c0 -8 5 -14 11 -13 6 1 10 -6 10 -15 -1 -10 4 -14 12 -11
18 7 18 9 -6 33 -24 24 -27 24 -27 6z"/>
<path d="M4964 139 c-3 -6 -1 -16 5 -22 8 -8 11 -5 11 11 0 24 -5 28 -16 11z"/>
<path d="M140 79 c0 -5 5 -7 10 -4 6 3 10 8 10 11 0 2 -4 4 -10 4 -5 0 -10 -5
-10 -11z"/>
</g>
</svg>
