<svg width="60" height="60" viewBox="0 0 60 60" fill="none" xmlns="http://www.w3.org/2000/svg">
<path d="M2.8125 6V54H56.8125V6H2.8125ZM4.81313 8.00063H9.81375V52.0012H4.81313V8.00063ZM54.8119 51.9994H11.8125V7.99875H54.8119V51.9994Z" fill="#9EE07E"/>
<path d="M33.8119 48.9994C44.3119 48.9994 52.8113 40.5 52.8113 30C52.8113 19.5 44.3119 11.0006 33.8119 11.0006C23.3119 11.0006 14.8125 19.5 14.8125 30C14.8125 40.5 23.3119 48.9994 33.8119 48.9994ZM33.8119 12.9994C43.2113 12.9994 50.8125 20.5987 50.8125 30C50.8125 39.4012 43.2131 47.0006 33.8119 47.0006C24.4125 47.0006 16.8112 39.4012 16.8112 30C16.8112 20.5987 24.4106 12.9994 33.8119 12.9994Z" fill="#9EE07E"/>
<path d="M33.8119 36C37.1119 36 39.8119 33.3 39.8119 30C39.8119 26.7 37.1119 24 33.8119 24C30.5119 24 27.8119 26.7 27.8119 30C27.8119 33.3 30.5119 36 33.8119 36ZM33.8119 26.0006C36.0113 26.0006 37.8113 27.8006 37.8113 30C37.8113 32.1994 36.0113 33.9994 33.8119 33.9994C31.6125 33.9994 29.8125 32.1994 29.8125 30C29.8125 27.8006 31.6125 26.0006 33.8119 26.0006Z" fill="#9EE07E"/>
<path d="M34.8131 30C34.8131 30.5531 34.365 30.9994 33.8138 30.9994C33.2625 30.9994 32.8144 30.5513 32.8144 30C32.8144 29.4469 33.2625 29.0006 33.8138 29.0006C34.365 29.0006 34.8131 29.4488 34.8131 30Z" fill="#9EE07E"/>
</svg>
